<svg width="315" height="137" viewBox="0 0 315 137" fill="none" xmlns="http://www.w3.org/2000/svg">
<path d="M37.7889 48.49L37.9736 49.4831L37.6227 50.1201L37.9736 50.8321L36.9024 52.9868L37.5303 53.3428L37.715 53.6988L37.3641 54.5044L37.9921 54.8604V55.3101L37.3641 55.0478L37.1055 55.2352L36.0343 55.4225L35.942 55.7785L36.2929 55.9659H37.0871L37.3456 56.1533V56.6029L37.161 56.8652L36.1821 57.3149L36.0897 57.6709L36.4406 58.6639L36.8839 59.1136L36.3483 59.7507L36.0897 60.3877L36.1821 60.8374L36.6253 61.5494L36.533 61.9054L35.8311 62.8047L35.9235 63.8914L36.1821 64.5285L34.7599 65.1655L34.5752 65.4278L35.3694 65.5215L35.4617 65.7838L35.277 66.7768L35.3694 67.3202L35.1108 67.8636L34.6676 67.6012V67.8636L34.9261 68.1259L34.3905 70.7302L33.6887 71.0862L34.3905 71.7982L34.0396 72.6976L33.8549 74.234L32.7098 75.0396L32.6174 75.8453L32.3588 76.4824L31.2137 77.1943L30.8628 77.7377L30.5119 77.925H29.533L29.2744 77.7377L28.3879 78L28.0369 77.8126L27.5013 77.007L27.7599 76.5573L27.5013 76.295L27.3166 76.932L27.0581 77.1943L26.7071 77.1007L26.3562 76.295L25.6544 76.5573L25.3958 76.295L25.2111 75.6579L25.3958 75.0209L25.2111 74.3838L25.3034 73.9342L24.8602 73.2972L25.2111 72.3041L25.1187 71.8544L25.6544 71.3111L24.9525 70.5054L25.6544 68.7067L25.3034 68.1633V67.1703L26.0976 64.6596L25.9129 64.3036L26.0053 63.142L26.4486 62.5986L26.3562 62.1489L26.7995 61.5119L27.5013 61.2496L27.2427 60.8936L26.6148 61.2496L26.2639 60.9873L26.1715 60.6313L26.5224 59.8256L26.3377 58.2892L26.8734 55.6848L26.5224 55.0478L26.7071 54.7855L26.8918 53.2491L27.2427 52.8931L26.7071 52.3497L27.0581 50.8134L27.5013 50.27L27.5937 48.921L27.1504 48.4713L26.9657 47.6656L26.6148 47.7593L25.9129 48.921L26.4486 49.277V49.633L26.2639 49.8203L24.8417 49.914L24.5831 50.1014L24.2322 50.8134L23.5303 50.907L23.6227 51.3567L24.1583 52.0687L23.9736 52.331L23.3456 52.5933L23.0871 52.406L23.438 51.694L22.9947 51.7876L22.7362 52.05L22.8285 52.762L22.6438 53.0243L23.2718 53.7363L23.0871 54.0923L22.2005 54.5419L22.0158 55.2539L20.7784 57.6897L19.9842 57.7833L19.7256 57.9707L20.1689 59.226L19.2823 59.7694L19.6332 60.6688L19.2823 60.7624L18.4881 61.4744L18.3958 62.1864L17.3245 62.5424L17.1398 62.8984L17.3245 63.4417L16.9736 64.0788H16.1794L16.438 64.7158L15.2005 65.8026V66.2522L14.6649 66.5145L14.314 66.4208L13.5198 67.3202H13.1689L12.3747 66.9642L12.1161 67.2265L11.8575 67.9385H11.4142L11.1557 67.7511L10.6201 68.3882L8.05277 68.2945L7.51715 68.0322H6.18734L5.92876 67.8448L5.30079 68.0322L4.94987 67.9385L4.76517 67.6762L3.97098 67.7699L3.5277 67.4139L3.97098 66.7019L3.7124 66.5145L2.91821 66.4208L1.68074 64.9781L1.77309 64.3411L1.42216 63.8914L1.07124 63.7977L0.720317 62.2614L0.184697 61.006L0.443271 59.7507L0.350925 59.0387L0 58.3267L0.350925 57.6897L0.443271 56.884L0.886545 56.2469L0.701847 55.9846L0.166227 55.7223L0.350925 55.0103L1.05277 53.755L0.794196 53.043L0.978891 52.406V51.0569L1.86544 50.7009L2.05013 50.4386L1.42216 50.0826L2.12401 49.5393V49.1833L1.86544 48.6399L2.40106 48.2839L2.65963 47.2909L2.56728 46.9349L3.19525 46.0356L3.45383 45.2299L4.15567 44.9676V44.2556L4.78364 43.0002L5.67019 42.2883L5.41161 41.8386L5.76253 41.1266L6.29815 40.5832L7.53562 38.1475L8.60686 37.6041L9.05013 37.1545L9.6781 36.8921L10.029 35.8991L10.7309 36.0865L11.1741 35.8991L12.9472 34.4564L13.3905 33.8194L14.3694 34.0817L14.628 33.8194L14.3694 32.92L15.0712 32.7326L16.5858 33.5383L16.7705 33.351L16.6781 32.639L16.9367 32.4516L17.8232 32.995L19.0607 32.5453L19.6887 32.9013H20.0396L21.7203 33.5383L22.1636 33.988L23.0501 33.8943L23.3087 34.1566L23.0501 35.2433L23.6781 37.042L23.9367 36.7797L23.6781 35.5244L24.5646 35.2621L25.0079 35.7118L24.657 36.4237L24.8417 36.5174L25.4697 36.2551L25.8206 36.4425L26.1715 36.8921H26.5224L26.7071 36.7048L26.5224 36.0677L26.8734 35.1684L27.1319 33.7257L27.6676 33.3697L28.2955 33.276V33.7257L28.4802 33.988L28.7388 33.8943L27.6676 32.0956L27.5752 31.3836L28.0185 30.8403L28.4617 30.9339L28.3694 29.7723L28.905 29.1352L29.2559 28.2359L28.9974 27.3365L30.0686 24.0951L29.81 23.3831L30.2533 22.2964L30.5119 19.2424L31.2137 18.2493L30.9551 16.2633L31.3984 15.6262L31.2137 14.9143L31.5646 13.5652L31.657 12.2162L31.8417 11.9539L31.934 9.51814L32.3773 8.80616L32.0264 8.09418L32.6544 7.64449L32.562 7.00746L32.7467 6.65146L32.9314 5.20876L33.2823 4.6654V4.21571L33.7256 3.31637L33.6332 2.5107L34.5198 1.34903L36.0343 0H37.1794L38.6016 0.637048L39.3958 0.54336L39.7467 0.730736L40.0976 2.62311L40.0053 3.0728L40.6332 4.06583L40.0053 4.8715L40.2639 5.05886L40.8918 4.8715L41.3351 5.32117L41.7784 6.48284L41.5937 7.92554L40.5224 8.73121L40.2639 9.72424L39.4697 10.1739L39.7282 10.5299H40.0792L40.9657 9.98655L41.2243 10.1739L41.4829 10.811L41.3905 11.167L41.7414 11.9726L40.7625 12.6097L41.2058 13.153L41.7414 14.4084L41.2058 15.1204L41.6491 16.8254L42 17.3687L41.1135 18.1744L40.8549 19.5234L40.4116 19.9731L40.504 20.7788L40.8549 21.2284L41.1135 21.3221L40.6702 22.3152L40.8549 22.5775L41.6491 22.8398L41.0211 24.8258L40.4855 25.4629L40.6702 25.7252H41.2058L41.3905 27.1679L40.6887 27.4302L40.2454 27.8799L40.3377 28.5919L39.9868 29.3039H40.8734L41.0581 29.5662V30.2032L40.0792 30.2969L39.7282 30.1095L39.6359 30.5592L40.3377 31.7209L39.9868 31.8146L39.7282 31.6272L39.6359 31.9832L40.3377 32.6952L39.2665 33.0512L39.6174 33.6882L40.3193 33.9505L39.1741 36.1989L39.2665 36.4612L39.9683 36.7235L40.3193 37.3606L40.2269 37.9976L39.6913 38.4473L39.4327 39.534L39.1741 39.9837L38.5462 39.7963L38.2876 40.0586L38.7309 41.0516L38.4723 42.2133L38.029 42.9253L38.7309 43.5623L38.5462 44.1994L37.8443 45.0987L37.6596 45.8107L37.4011 45.717L36.8654 45.9793L36.9578 46.3353L37.2164 46.429L37.9182 45.792L38.5462 46.148L38.4538 47.497L37.9182 47.7593L37.7335 48.0216L37.8259 48.3776L37.7889 48.49ZM16.6781 35.4494L16.3272 35.3558L15.0897 36.2551H14.2955L14.1108 36.9671L13.0396 37.8665L12.3377 38.2224L11.9868 38.8595L11.3588 39.4028L11.2665 40.1148L9.58575 40.6582L9.84433 41.2952L9.21636 42.1009L9.03166 42.8129L8.4037 43.0002L8.05277 42.1009L7.7942 42.2883L7.70185 42.8316L6.02111 44.1806L6.46438 45.1737L5.76253 46.785L4.96834 47.8717V48.4151L4.34037 48.9584L4.78364 49.7641L3.7124 52.3685L3.8971 53.0055L3.80475 53.3615L4.34037 54.1672L3.36148 55.3288L3.45383 56.1345L3.98945 56.6779L3.45383 57.7646L4.08179 58.7576V60.013L4.96834 61.4557L5.06069 62.2614L5.68865 63.5167L6.31662 63.779V64.0413L6.94459 64.9407L8.01583 64.5847L8.27441 64.772L8.97625 64.8657L9.6781 64.6784L10.4723 64.8657L10.657 64.3224L12.1715 64.0601L13.8522 62.711L13.5013 62.074L14.4802 61.718L14.6649 61.4557L14.4802 60.9123L15.6253 59.7507L16.3272 59.4883V58.4016L17.1214 57.596H17.7493V56.5092L18.4512 55.7973L18.7098 55.0853L19.0607 54.9916L19.504 55.3476L19.3193 55.9846L19.504 56.3406L19.7625 56.1533L20.0211 54.8042L19.5778 53.9986L19.6702 53.7363L20.2982 53.4739H21L20.9077 52.8369L21.4433 51.7502L21.3509 51.0382L21.9789 50.2325L22.2375 49.5205L22.1451 49.0709L22.9393 48.2652L23.4749 46.7288L24.5462 46.0168L24.2876 44.3118L24.7309 43.6748L24.6385 42.8691L25.2665 41.7074L25.0818 40.9018L24.6385 40.3584L23.9367 40.2647L23.5858 39.815L23.4011 38.7283L22.2559 37.7353L21.905 37.1919L21.277 36.9296L20.5752 37.1919L20.3166 37.0046V36.7423L20.5752 36.5549H21.0185V36.1989L20.7599 36.0115L19.6887 36.2738L18.9868 35.9179L18.4512 35.3745L18.3588 35.0185L17.2876 34.6625L17.1953 35.4682L16.9367 35.6555L16.6781 35.4682V35.4494ZM11.8021 34.9998L11.5435 34.9061L11.4512 34.6438H11.8945L11.8021 34.9998ZM18.7098 63.1607L18.4512 63.5167L18.3588 63.067L18.7098 63.1607ZM18.8945 33.9318L18.9868 34.1941L19.1715 33.9318H18.9129H18.8945ZM24.8417 37.7915V38.1475L25.3773 38.5035L25.562 37.8665L25.0264 37.5105L24.8417 37.7728V37.7915ZM26.1715 73.8592H26.4301L26.3377 73.5969H25.9868L26.1715 73.8592ZM26.6148 64.5097L26.7995 64.2474L26.4486 64.1537L26.3562 64.416L26.6148 64.5097ZM28.0369 45.6234L27.3351 45.8857L27.0765 46.148L27.2612 46.504L27.1689 47.5907L27.4274 47.6844L28.1293 47.497L28.2216 47.2347L27.8707 46.5976L28.0554 46.2416L28.6834 45.792L28.4248 45.436L28.0739 45.6234H28.0369ZM27.5937 44.5366L27.2427 44.4429L27.4274 44.7053H27.9631L27.6121 44.5179L27.5937 44.5366ZM27.686 72.0605H27.5013L27.409 72.3228L27.6676 72.0605H27.686ZM28.9235 75.8453L29.1082 75.1333L28.8496 75.227L28.6649 75.583L28.9235 75.8453ZM29.6253 63.1607L29.9763 62.9733L30.0686 62.6173L29.6253 62.711L29.533 62.9733L29.6253 63.1607ZM30.6042 76.7447L31.3061 76.295H30.5119L30.6042 76.7447ZM31.3061 63.7041L30.9551 64.2474L31.5831 64.0601L31.934 62.8984L31.3061 63.3481V63.7041ZM31.3984 67.1141L31.657 66.9267L31.7493 66.5707L31.1214 66.6644L31.029 67.0204L31.38 67.1141H31.3984ZM31.7493 57.4836L31.3061 56.9402L31.3984 57.5772L31.7493 57.4836ZM31.657 55.8722H31.9156L31.7309 55.4225H31.4723L31.38 55.7785L31.6385 55.8722H31.657ZM32.3588 35.2808V34.8311L31.8232 34.4751L31.6385 34.8311L31.8971 35.4682L32.3404 35.2808H32.3588ZM31.7309 54.7105L32.2665 54.8042V54.4482L31.9156 54.3546L31.7309 54.5419V54.7293V54.7105ZM32.2665 59.7507L31.9156 59.657V60.013L32.2665 59.7507ZM32.8945 67.1328L33.6887 67.2265L34.3166 66.9642L34.409 66.6082L33.781 66.4208L32.8021 66.6831L32.6174 66.9455L32.876 67.1328H32.8945ZM33.8734 62.3738H33.1715V62.8234L34.058 63.0108L34.2427 63.2731V63.7228L34.5937 63.9102L34.9446 62.4674L34.2427 62.5611L33.8918 62.3738H33.8734ZM33.6148 68.1259V67.8636L33.2639 68.1259H33.6148ZM34.1504 36.5549L34.5013 36.4612L34.7599 35.9179L34.5013 35.8242L33.9657 36.2738L34.1504 36.5361V36.5549ZM34.3351 65.6901L34.1504 65.5028L34.2427 65.7651L34.3351 65.6714V65.6901ZM34.5937 25.0319V24.676L34.409 24.5823L34.2243 24.9383L34.4829 25.2006L34.5752 25.0132L34.5937 25.0319ZM34.2427 49.7641L34.3351 50.0264L34.5198 49.7641H34.2612H34.2427ZM35.1293 57.2212H35.7573L35.2216 56.7716L34.9631 57.0339L35.1478 57.2212H35.1293ZM35.314 45.9793L35.942 45.717L35.4987 45.6234L35.1478 45.8107L35.3325 45.9981L35.314 45.9793ZM36.1082 74.4963L35.5726 74.7586L35.3879 74.4026L36.1821 74.2152L36.0897 74.4775L36.1082 74.4963ZM36.9024 19.3548L37.161 19.2611L36.9024 18.9051L36.6438 19.1674L36.9024 19.3548ZM39.0264 48.134L38.6755 48.2277L38.4169 47.6844L38.6755 47.497L39.2111 47.7593L39.0264 48.1153V48.134ZM38.8417 53.7925L38.4908 53.8862L38.3984 53.5302L38.657 53.2678L39.0079 53.3615L38.8232 53.8112L38.8417 53.7925ZM39.1003 45.436L38.9156 45.6983L38.5647 45.5109L38.4723 45.0613H39.1003V45.4173V45.436ZM38.9156 50.6447L39.0079 51.0944L38.657 51.2818L38.4723 51.0195L38.657 50.6635H38.9156V50.6447ZM38.8232 56.0408L38.9156 56.3031L38.7309 56.5655L38.4723 56.3781V56.0221H38.8232V56.0408ZM39.4512 43.0002L38.7493 42.9066V42.5506L39.4512 42.2883L39.8021 42.4756L39.8945 42.8316L39.4512 43.019V43.0002ZM40.8734 35.8991L40.6887 35.9928V35.6368L40.8734 35.8991Z" fill="#E23E3E"/>
<path d="M58.101 31.1725V31.437L58.9184 32.3438L58.8233 32.7028L57.9109 33.5151L57.8159 34.233L57.5498 34.7809L58.8233 35.1398L58.9184 35.4043L58.6523 35.6688L57.1886 35.5743L57.7398 36.0277L58.5572 37.5768V37.8413L58.006 38.4836L58.4622 38.937L58.5572 39.4849L58.196 40.4861L58.2911 40.8451L57.3787 40.9396L57.1126 41.1285L57.3026 41.4874L57.8539 41.9408L57.9489 42.4887L57.5878 43.0365L57.7779 44.1322L57.5117 45.1335L56.7894 45.5869L56.9795 46.9471L57.987 47.7594V48.0239L57.6258 48.5718V48.9307L56.7134 49.4786L56.5233 49.8375L56.6183 50.1965L57.0745 50.6499L56.4282 51.1033L56.3332 51.4622L56.5993 52.1045L55.877 52.7468L55.972 53.3892L56.9795 54.296V54.7494L56.3332 55.5617L56.6944 56.2796L55.5919 56.9219L56.1431 57.5642L55.5919 57.9232L55.2307 57.7343L54.8695 57.8287L55.1357 58.3766L55.858 58.471L56.0481 58.7355L55.858 59.3778L55.4968 59.1889L54.9456 59.4534L54.8505 60.0013L55.1167 60.2658L55.839 59.4534L56.4853 59.7179L56.9415 60.1713L56.3902 60.6247L56.1241 61.626L57.1316 62.7972L56.5803 63.704L56.3142 64.5164L55.5919 65.3287L55.858 65.6877L56.8655 65.3287L57.2266 65.4232L57.1316 65.6877L56.3142 66.2355L56.5803 66.5945L57.2266 66.6889L58.044 65.8766L58.3101 65.2343L59.4126 64.1385L60.5911 63.3262V62.5138L61.8647 61.1537L62.2259 60.4358H62.6821L62.587 59.7935L64.9631 56.8841L64.4119 56.2418L64.773 55.8829L65.4953 55.7884L65.7615 55.5239L65.5714 55.165L65.6664 54.5227L66.1226 54.0693L67.035 54.2582L66.5788 53.8992L66.3887 53.1814L66.845 52.8224L67.5673 52.728V51.5567L67.7574 51.1977H68.4797L68.1185 49.932L68.5747 49.4786V49.0252L68.9359 48.4773L68.8409 48.1184L69.0309 47.0227L69.2971 46.3804V45.738L68.9359 45.0957L69.8483 43.83L69.7533 43.471L70.2095 42.7532L70.0194 42.3942L70.5706 41.6763L70.1144 40.864L70.2095 40.5995L71.388 40.1461V39.7872L71.0268 39.3338L70.6657 39.2393L70.8558 38.8803L71.6731 38.6159L71.407 38.3514V37.9924L72.2244 36.8212L73.2318 36.6322L74.6004 36.7267L75.874 37.6335L76.5203 37.898L76.7864 39.2582L76.5963 39.9761L77.6988 40.335L78.2501 40.7884L78.06 41.9597L77.3377 42.2242L77.7939 44.3967L77.5278 45.3035L77.984 46.0214L77.2616 46.6637H76.9955L77.4517 48.1184L77.3567 48.5718L78.003 48.8363L77.8129 49.1008L77.4517 49.1952L77.1856 49.9131L77.2807 50.5554L76.8245 51.2733L77.5468 51.8212L76.9955 53.4459L77.4517 54.3527L76.8054 54.995L77.1666 55.6373L76.6154 56.4496L77.2616 56.903L75.9881 57.5454L75.893 57.9043L76.1591 58.4521L76.4253 58.1877L76.8815 58.0932L76.0641 59.1889V60.0013L75.0567 60.7191L75.7029 61.267L76.3492 60.8136L76.9955 61.1726L76.5393 61.8149L76.6344 62.1738L75.5319 62.9861L75.4368 63.704L75.6269 64.3463L74.9806 64.4408L75.1707 64.7998L75.722 64.9887L75.3608 66.6134L74.5434 66.9723L73.9922 67.4257L74.3533 68.427L74.9996 68.7859L74.9046 68.068L75.1707 67.6146L75.5319 67.5202L75.893 67.7091L75.798 68.1625L75.0757 68.8804V69.2393L74.2583 70.4106V70.7695L75.1707 70.2217H75.4368L75.9881 70.7695V71.6763H76.3492L76.9005 71.4118L77.9079 70.4106L78.7253 70.5051L79.3716 70.3161L79.8278 69.7683L80.4741 69.5038L80.8353 68.9559L81.5576 68.5025L81.9187 67.5957L82.8312 66.5945L82.9262 65.9521L84.0287 64.6864L84.1237 64.0441L85.1312 63.4018V62.495L85.9486 61.7771L85.8535 61.3237L86.1196 60.6814L86.6709 60.228L87.0321 59.5857V59.2267L87.9445 57.8665L88.0395 57.1486L88.8569 56.6008L89.047 55.9585L88.9519 55.505L89.6742 54.8627V54.3149L90.9478 52.4068L90.5867 51.9534L90.7767 51.6889L91.423 51.5L91.328 50.6877L92.1454 49.5919V48.4962L92.9627 47.495L93.1528 46.8526L94.3313 45.5869L94.2363 44.869L94.7875 42.6965L95.4338 42.1486L95.5289 41.4307L96.1752 40.9773L96.3653 40.2594L96.9165 39.7116L97.1826 39.8061L97.905 40.9018L98 41.5441L97.8099 41.9975L96.6314 42.1864L96.3653 42.3753L96.5553 42.6398L97.5628 43.0932L96.8405 43.8111L96.5744 44.4534L96.6694 44.9068L96.3082 45.1713H96.0421L95.776 45.4358L95.3198 46.7015L95.0537 46.966L94.7875 47.6839L95.1487 48.3262L94.9586 49.0441H93.8561L93.666 49.3086L94.1222 50.3098L93.8561 50.7632L93.0388 50.8577L92.7726 51.3111V52.7658L92.1264 54.0315L91.4801 54.2204L91.385 55.7695L90.5676 56.034L90.6627 57.1297L90.3966 57.3186H89.6742L89.4081 57.1297L89.218 57.3186L89.7693 57.961L89.5792 58.6788L89.6742 59.1322L89.218 59.0378L89.7693 59.3023L89.123 59.5667L88.6668 60.0202L88.8569 60.6625L88.7618 61.0214L87.6593 61.2859L87.4692 61.5504L88.0205 61.9093L87.9255 62.2683L86.6519 62.7217L86.918 63.8174L86.823 64.0819L85.2643 64.2708L85.8155 65.272L85.3593 65.8199L85.0932 66.5378L84.5419 66.8023L84.732 67.1612L85.0932 67.3501L84.9981 67.7091L84.4469 68.1625L83.8006 67.898L83.7056 68.2569L83.9717 68.8992L83.4204 69.6171L83.0593 69.4282L82.6981 68.7859L82.432 68.9748L82.0708 69.8816L81.3485 70.2406L81.7097 70.5995L81.6146 70.9584L81.0634 71.6763L80.4171 71.4874L79.3146 72.7532L78.6683 73.0177L78.2121 73.66L76.3872 73.5655L75.931 73.9244H75.2087L74.9426 73.7355L74.4864 72.8287L74.1252 73.1877L74.2203 73.5466L73.669 74L73.0227 73.9056L72.7566 73.3577L73.3079 72.6398L72.3955 72.3753L71.6731 72.4698L71.7682 72.0164L72.6806 71.4685L73.688 72.1864L73.8781 71.9219V71.4685L73.688 71.204L72.9657 71.4685L72.5095 70.9207L72.6045 70.6562L73.4219 70.0139L73.2318 69.825L72.8707 69.9194L71.6921 69.6549V70.0139L72.1483 71.0151L71.426 71.204L70.9698 71.563L70.2475 70.8451L70.4376 70.0328L71.1599 70.2217V69.8627L70.8938 69.4093L71.2549 69.3149L71.5211 69.5794L72.4335 68.767H73.3459L72.9847 68.2191L72.6236 68.0302L70.6086 68.3892L70.3425 68.6536L69.5252 68.2947L68.8028 68.3892V67.3879L69.5252 66.2166L70.4376 66.4811L69.8863 67.4824L69.9814 67.9358L70.3425 67.8413L70.7037 67.1234V66.67L70.4376 65.9521L70.1715 65.7632L67.9855 65.8577L67.8904 65.1398L68.0805 64.4219L67.8904 63.704L68.5367 63.9685V64.7809L68.8979 64.6864L69.259 63.4207L69.5252 63.2317L69.7913 63.4207L71.2549 63.5151L72.8136 63.2507L72.7186 62.7972L71.7111 62.6083L71.0649 62.9673L70.4186 62.8728L69.8673 62.4194L68.0425 62.8728L67.9474 62.2305L68.9549 61.5882L68.4987 61.1348L67.8524 61.0403L68.0425 60.3224L67.9474 59.5101L68.5937 59.0567L68.4037 58.7922L68.0425 58.6977L68.3086 58.0554L68.0425 57.3375L68.3086 56.2418L68.2136 55.8829L69.7723 55.0705L69.3161 54.7116L68.7648 55.165L67.3012 54.9761L67.035 55.165L66.94 55.8073L66.4838 56.2607L66.2177 56.903L66.3127 57.3564L65.6664 58.2632L65.4003 59.0756L64.2978 58.8866L63.9366 59.0756L64.0317 59.529L64.678 59.6234L64.2218 60.5302L64.3168 60.9836L64.0507 60.8892V60.6247L63.7846 61.1726L63.2333 61.3615L63.0432 61.626L63.1383 61.9849L63.9556 62.3438L63.8606 62.6083L63.0432 63.1562L62.7771 64.2519L62.1308 64.4408L61.7697 65.4421L60.9523 65.9899L60.4961 66.5378L60.23 67.7091L59.6787 67.8035L58.5002 68.7104H58.044L58.2341 69.5227L58.044 69.7872L56.6754 69.8816L57.2266 70.7884L57.0365 71.1474H56.7704L56.0481 70.694L54.4133 71.2418L53.7671 70.9773L53.672 70.335L53.4819 70.1461L52.7596 70.335L52.5695 70.0705H51.5621L50.5546 69.3527V68.8048L49.3761 67.898V67.0857L48.5587 65.9144V65.1965L47.8364 64.5542L48.2926 63.4584L48.1025 63.1939L47.3802 63.0051L47.5703 61.7393L47.3802 61.3804L47.9314 60.568L47.2851 60.3791L47.6463 59.7368L47.4562 58.2821L47 57.8287L47.095 57.1864L47.6463 55.9207L47.1901 55.0139L47.2851 54.6549L47.9314 55.0139L48.0265 54.6549L47.6653 53.937V53.4836L48.4827 52.6713L47.9314 52.2179L48.5777 51.67L47.9314 51.1222V50.8577L48.3876 50.2154V49.4975L48.9389 48.8552L48.3876 47.8539L50.2125 47.2116L50.0224 47.0227L49.0149 46.8338L48.8248 46.5693L49.281 45.8514L49.0909 44.8501L49.281 43.6788L49.6422 43.131L49.8323 41.9597L50.1934 41.8652L50.6496 41.4118L50.3835 41.2229L50.0224 41.3174L49.7562 41.1285L50.1174 40.7695L49.8513 39.7683L50.3075 39.3149L51.0298 39.0504L51.2199 38.7859L50.9538 38.238L51.1439 37.8791L51.2389 36.8778L51.429 36.6134L51.1629 35.5176L51.9802 34.7053L51.7902 33.6096L51.8852 32.7972L52.6075 32.4383L52.8736 32.0793L52.3224 31.5315L52.4174 31.1725L52.8736 30.7191L53.691 30.8136L53.5009 30.0957L53.8621 29.4534L54.4133 29L55.972 29.3589L56.4282 29.2645L57.8919 30.2657L58.3481 30.8136L58.2531 31.0781L58.101 31.1725ZM49.243 62.2872H49.9653L49.8703 61.9282H49.0529L48.8628 62.1927L49.224 62.2872H49.243ZM49.5091 59.3023L49.319 59.0378L49.0529 59.2267L49.148 59.5857L49.5091 59.3212V59.3023ZM49.6042 63.4773L49.148 64.1197L49.8703 64.0252L51.2389 63.3829L50.5926 63.0239L49.9463 63.2129L49.5852 63.4773H49.6042ZM50.0604 61.2103L50.5166 60.8514L50.3265 60.5869L50.0604 60.6814L49.6042 61.3237L50.0604 61.2292V61.2103ZM51.2389 59.8501L51.0488 59.5857L50.8587 59.8501H51.2199H51.2389ZM51.7902 64.0252H52.1513L52.4174 63.7607L52.2274 63.4018L51.6761 63.4962L51.486 63.7607L51.7521 64.0252H51.7902ZM53.1588 60.8514V60.398L52.8927 60.4925V60.8514H53.1588ZM53.8051 65.3854L53.9952 65.0264L53.729 64.762H53.4629L53.2728 65.0264L53.3679 65.3854H53.8241H53.8051ZM53.71 56.8652L53.9001 56.6763H53.539L53.729 56.8652H53.71ZM54.5274 55.864L55.2497 55.7695L55.7059 55.3161L55.1547 55.0516L54.4324 55.3161L54.2423 55.864H54.5084H54.5274ZM54.7175 64.0252L55.0786 63.7607H55.4398L55.7059 63.3073L55.4398 63.0428L54.7175 63.1373L54.4514 63.4962L54.3563 64.0441H54.7175V64.0252ZM55.3638 49.7053L55.2687 49.3464H55.0026L54.9076 49.7997L55.1737 49.8942L55.3638 49.7053ZM55.4588 54.5038V54.2393H55.1927L55.4588 54.5038ZM57.6448 56.4118L57.4547 55.864L57.8159 55.6751L58.006 56.034L57.9109 56.393H57.6448V56.4118ZM69.4111 60.6814V60.4169L69.0499 60.3224L68.9549 60.5869L69.4111 60.6814ZM70.4186 69.5605L70.3235 70.1083L69.5061 69.8438L69.4111 69.5794L70.1334 69.0315L70.3996 69.2204V69.5794L70.4186 69.5605ZM70.3235 47.0793L70.2285 46.8149H69.9624L70.3235 47.0793ZM70.3235 44.4534L70.6847 44.5479L70.8748 44.2834L70.6847 44.0945H70.3235V44.4534ZM70.5896 65.1209L70.9508 64.932L70.6847 64.5731L70.3235 65.0264L70.5896 65.1209ZM70.8558 45.5302L70.7607 45.2658L70.4946 45.1713V45.6247L70.8558 45.5302ZM71.502 52.8791H71.8632L72.1293 52.6146L72.0343 52.2557L71.6731 52.0667L71.407 52.2557L71.2169 52.7091L71.483 52.898L71.502 52.8791ZM71.6921 67.7469L72.0533 67.8413L72.7756 67.6524L73.2318 67.2935L73.0417 66.6511L72.4905 66.5567L72.3004 66.9156L71.5781 67.1801L71.388 67.539L71.6541 67.728L71.6921 67.7469ZM71.8822 57.961L72.3384 57.602L71.9773 57.4131L71.6161 57.5076L71.5211 57.8665L71.8822 57.961ZM71.9773 64.5731L71.7111 64.4786L71.5211 64.7431L71.6161 65.0076L72.2624 65.3665L72.4525 65.102L73.9161 64.6486L73.65 64.2897L73.0037 64.1952L72.3574 64.5542H71.9963L71.9773 64.5731ZM71.8822 51.6889L72.6996 51.5L72.7946 51.1411H72.1483L71.5971 51.5L71.8632 51.6889H71.8822ZM71.6161 54.3149L72.2624 54.4093L72.3574 54.1448L71.9963 53.9559L71.6351 54.0504V54.3149H71.6161ZM71.7111 60.8514H72.0723V60.4925L71.7111 60.5869V60.8514ZM71.9773 66.3867L72.3384 66.5756L72.4335 66.2166L72.2434 65.8577H71.8822L71.6921 66.1222L71.9583 66.3867H71.9773ZM73.0798 61.9471V61.6826L72.6236 61.8715L73.0798 61.966V61.9471ZM73.2698 63.7607L73.536 63.8552L73.9922 63.2129H73.2698L73.0798 63.4773L73.2698 63.7418V63.7607ZM74.2773 46.437V45.9836L74.7335 45.5302L74.4674 45.4358L74.2013 45.6247L73.9351 46.3426L74.2963 46.437H74.2773ZM74.3723 71.6574L74.6385 71.8463L74.8285 71.4874L74.6385 71.2229H74.3723L74.1823 71.4874L74.3723 71.6763V71.6574ZM75.0947 48.3451L75.3608 48.0806H74.9996L75.0947 48.3451ZM76.3682 46.796V46.3426L75.912 46.7015L76.0071 46.966L76.3682 46.7771V46.796ZM76.0071 73.2821L76.1021 73.5466L76.3682 73.4522L76.0071 73.2632V73.2821ZM76.5583 48.4395V48.0806L76.1972 48.1751L76.1021 48.534L76.3682 48.7229L76.5583 48.4585V48.4395ZM77.1096 69.5605L76.7484 69.7494L76.3872 69.6549L76.8435 69.0126L77.2046 69.1071L77.1096 69.5605ZM77.2997 73.1877L77.4897 72.9987L77.2997 72.7343L77.0335 73.0932L77.2997 73.1877ZM83.4965 67.8413L83.8576 67.9358V67.5768L83.5915 67.3879L83.3254 67.6524L83.5155 67.8413H83.4965Z" fill="#E23E3E"/>
<path d="M110.773 30.4192L112.059 31.9918L112.788 31.7233L113.612 32.2794L113.881 32.9315L113.977 33.8521L115.166 34.3123L114.437 34.6767L114.533 35.3288L114.341 35.5972L113.325 35.9616L112.864 36.326H112.5L111.214 35.7699L111.023 35.4055L110.658 35.2137L110.294 34.6575L109.181 34.0055L107.243 33.5452L106.591 33.737L105.114 36.2301L104.289 36.7863L104.193 37.5151L103.925 38.0712L103.829 38.8L103.1 39.1644L103.464 39.8164L102.179 40.6411L101.987 40.9096L102.179 41.6383L101.527 42.0027L101.719 42.9233L100.702 43.6521V44.7644L99.7811 45.2247L99.877 45.4931L100.433 45.8575L99.7044 46.7781L99.9729 47.4301L99.5125 49.0027L99.244 49.3671L98.515 49.7315L98.3232 50L98.515 50.4603L98.1505 51.8411L98.515 52.3014V53.6822L98.2464 53.9507L97.4215 54.1425L97.6901 55.1589L96.7693 55.6192L96.4048 56.1753H97.882L98.0738 56.4438L97.2489 57.1726L97.0571 57.537L97.2489 57.9014L98.0738 57.537L98.4383 57.8055L98.5342 58.1698L98.2656 58.726L99.1864 59.1863L99.455 59.8384L100.011 60.2986L100.836 60.3945L101.488 60.663H102.313L102.966 60.3945L103.33 60.4904L104.347 59.8384L104.807 59.2822L105.728 58.726L106.188 58.1698L106.745 58.3616L107.109 58.2657L107.934 57.0767L108.663 56.9808L108.855 56.7123L108.759 56.0603L109.872 55.4082L110.063 54.5836L111.445 54.2192L111.253 52.9342L111.713 51.8219L112.442 51.6301V50.8055L113.459 49.8849L114.111 49.5205L114.207 49.1562L115.128 48.1397L114.859 47.5836L115.684 46.7589L115.78 45.1096L116.241 43.6329L115.972 42.8082L116.624 42.5397V42.1753L116.356 41.6192L116.816 41.5233L117.545 40.6986L117.449 40.2383L117.641 39.5096L117.372 38.9534L117.641 38.2247V37.2082L118.754 36.0192L118.945 34.9068L118.849 34.5425L119.962 33.8904L120.058 33.6219L119.137 33.3534L119.233 32.8931L119.962 32.0685L119.77 31.4164L120.135 30.9562L120.787 30.6877L121.247 30.7835L121.516 29.7671L121.785 29.5753L122.609 29.8438H123.434L124.163 29.5753L126.561 31.3205L127.386 32.5096L127.194 32.7781L126.542 33.1425L126.35 33.5068L126.619 34.2356L126.523 34.6959L127.348 35.3479L126.427 36.537L126.983 37.0931V37.5534L127.252 37.8219L127.808 38.0137L127.712 38.474L126.696 39.2027L126.6 39.4712L126.791 39.7397L126.331 40.2959V40.7562L127.156 40.852L127.348 41.5041L126.983 41.6959L126.254 41.5041L126.062 41.7726L126.427 42.789H126.887L126.331 42.9808L126.523 43.3452L127.079 43.8055L127.271 44.1699L127.079 44.4383L125.967 44.7068L126.235 45.6274L125.679 46.5479L126.791 46.6438L127.156 46.9123L126.964 47.1808L126.312 47.5452L126.043 49.3863L126.504 49.9425L126.312 50.3068L125.295 50.6712L126.024 51.3233L125.928 51.7835L125.276 52.2438L125.468 52.8L125.276 53.1644L124.547 53.7205V54.3726L123.991 54.737L122.705 55.1973L123.166 55.6575L124.547 55.389L125.66 55.7534L125.468 56.1178L123.991 56.4822L124.259 57.3068L123.434 57.863L122.782 58.0548L122.514 58.3233V58.6877L123.53 58.2274L124.355 58.1315L125.007 59.052L124.451 59.3205L124.259 59.589L125.449 60.0493L124.988 60.874L124.892 61.6986L123.971 62.6192L124.163 62.9836H125.084L125.276 62.7151L125.64 63.1753V63.5397L124.911 64L125.103 64.652L124.278 65.3041L124.374 65.7644L124.106 66.7808L124.758 67.0493L124.95 67.4137L124.681 67.9698L124.029 68.1616V68.8137L124.489 68.7178L125.775 68.9863L125.679 69.4466L125.41 69.5425L124.489 69.0822L124.125 69.274L123.76 70.0027L124.681 70.1945L124.777 70.8466L124.221 71.115L123.396 71.0192L122.744 70.7507L122.187 71.3068L120.806 71.115L121.823 72.0356V72.4L122.475 73.3205L122.111 74.0493L122.303 74.3178L122.667 74.2219L124.24 72.937H124.7L124.969 73.2055V74.0301L125.986 74.6822L125.89 75.0466L125.429 75.5068L124.777 75.4109L124.509 75.6027L124.605 76.2548L124.336 76.5233H123.971L123.243 77.8082L122.878 78L122.322 77.7315L122.59 77.0027L122.226 76.9068L121.574 77.0986L120.921 75.9863L121.574 75.526L122.59 75.8904V75.526L122.034 74.874L121.765 75.2384L120.94 75.4301L120.48 75.9863L120.384 77.3671L119.924 77.2712L118.543 76.3507L118.351 76.5424L117.89 76.4465L116.874 74.9699L117.334 74.4137L117.142 74.0493L116.221 74.4137L115.032 72.3041V71.4794L114.207 71.0192V69.3699L114.476 68.7178L113.747 68.526V67.4137L114.303 67.2219L114.572 66.8575L114.111 66.7616L113.651 66.3014L114.572 66.3973L115.032 65.937L114.572 65.4767L113.919 65.2849L113.728 65.0164L113.823 64.1918L114.015 63.9233L113.459 63.3671L113.823 62.6383L113.632 62.274L113.823 60.0685L114.476 59.8L113.919 59.1479L113.651 57.3068L114.476 57.2109L114.667 56.8466L114.015 56.7507L113.459 56.1945H113.094L112.27 56.7507H111.905L111.809 57.4794L111.349 57.6712L110.984 58.3233L110.063 59.3397L109.239 59.5315L108.97 59.8L109.162 60.452L107.589 62.1973H106.303L105.747 62.5616L106.399 63.4822L105.575 64.211L105.114 64.863L104.001 65.1315L103.349 65.0356L102.697 65.2274L102.141 65.1315L101.22 66.2438H100.107L98.5342 65.9753L97.9779 65.3233L97.153 65.4192L96.424 65.1507L95.3114 64.1342L94.9469 64.0383V63.4822L94.6783 63.2904L93.9493 63.3863L93.1245 62.7342L92.2996 62.5424L91.9351 61.8137L92.2036 61.0849L91.0143 60.989L90.7457 60.7973L91.1102 59.8767L90.9183 59.6082H90.1894L89.6331 59.3397L89.9016 58.5151L89.5371 57.4027L89.0767 56.7507V56.3863L89.9975 55.7342L89.729 55.4658H89L89.4604 54.8137L89 54.0849L89.0959 53.3562L89.5563 52.8959L89.0959 52.3397L89.5563 51.6877V48.8301L89.3645 48.1781L89.4604 47.8137L90.0167 47.2575L90.3812 47.1616L90.1126 46.4329L91.2253 43.1151L91.5898 42.5589V41.9068L92.4147 40.8904L92.6065 40.1616L93.4314 39.5096L94.6208 37.7644V37.2082L96.4624 34.7151L97.0187 34.2548L97.7477 34.063L98.0162 33.7945L98.2081 32.9699L99.9538 32.0493L100.222 31.3973L102.333 29.652L102.889 30.0164L104.635 29.652L105.824 29L106.553 29.3644H107.282L107.934 29.6329L109.315 29.4411L110.697 29.8055L110.792 30.2657L110.773 30.4192ZM94.851 60.6246H95.1195L95.0236 60.1644H94.755L94.5632 60.5288L94.8318 60.6246H94.851ZM98.9946 63.8466L98.5342 63.7507L98.4383 64.0192L98.8987 64.2877L98.9946 63.8274V63.8466ZM99.2632 47.4685L99.0713 46.9123H98.7068L98.6109 47.1808L98.9754 47.6411L99.244 47.4493L99.2632 47.4685ZM115.646 68.2767L115.454 67.4521L114.994 67.2603V67.7205L115.262 68.4493L115.531 68.6411L115.627 68.2767H115.646ZM116.835 70.0219V69.7534H116.567V70.0219H116.835ZM118.869 74.2602L118.6 73.8959L118.332 73.9918V74.2602L118.696 74.5287L118.888 74.2602H118.869ZM118.965 61.3726L119.233 61.1041L119.041 60.8356L118.677 60.9315L118.485 61.2959L118.945 61.3918L118.965 61.3726ZM121.823 68.8328L121.919 69.1972L120.346 69.926L119.885 69.5616L118.696 69.8301L118.504 70.0219L118.6 70.3863L118.965 70.4822L119.521 70.2904L120.71 70.6548L121.9 70.0986L122.629 70.5589L122.897 70.0027L122.437 69.6384L122.341 69.274L123.07 68.6219L123.262 68.0657L122.533 67.9698L121.976 68.2383L121.785 68.5068V68.7753L121.823 68.8328ZM119.061 73.3397L119.789 73.0712L119.981 73.263L120.346 73.1671L120.077 72.8027H119.061L118.792 73.0712L119.061 73.3397ZM120.077 71.4986H119.061L118.965 71.863L119.233 72.0548L120.058 71.863V71.4986H120.077ZM119.348 75.6411L119.713 75.737L119.981 75.4685L119.329 75.2L119.061 75.3918L119.329 75.6603L119.348 75.6411ZM120 69.1014L120.269 68.4493H119.617L119.156 69.1014H119.981H120ZM120.096 65.6876V65.3233L119.828 65.4192L120.096 65.6876ZM120.653 74.5287L120.921 73.5123L120.192 73.7808L120.096 74.5096H120.653V74.5287ZM121.382 66.6082L120.557 66.8L120.192 67.3562L120.461 67.5479L121.746 67.2794L122.475 66.7233L122.283 65.8027L121.631 65.7068L121.727 66.5315L121.363 66.6274L121.382 66.6082ZM121.19 73.4164L121.746 72.7644H121.094L120.825 73.4164H121.19ZM121.382 64.211L121.574 64.0192V63.3671L121.017 63.6356V64.2877L121.382 64.1918V64.211ZM122.111 64.1151L122.571 64.211L122.303 62.7342H122.034L122.13 63.2904L121.861 63.8466L122.13 64.1151H122.111ZM122.379 53.8931L122.744 53.4329L122.015 53.7972V54.0657L122.379 53.874V53.8931ZM122.379 56.7507L122.84 56.5589V56.1945L122.111 56.2904L122.015 56.6548L122.379 56.7507ZM122.475 72.4L122.283 71.9397L122.552 71.6712L123.281 71.5753L123.933 71.8438V72.4L123.473 72.6685L122.648 72.7644L122.456 72.4H122.475ZM122.84 52.8L123.031 52.5315L122.84 52.263L122.571 52.7233L122.84 52.8192V52.8ZM122.936 61.2767L122.744 60.9123L122.552 61.2767H122.916H122.936ZM124.125 61.0082L124.317 60.7397L123.952 60.8356L124.144 61.0274L124.125 61.0082ZM124.489 46.0877L124.585 46.3562H124.95V45.9918L124.585 45.8L124.489 46.0685V46.0877ZM124.854 51.0548L125.122 50.7863L124.758 50.6904L124.489 50.8822L124.585 51.2466L124.854 51.0548ZM124.95 47.9288L125.314 47.737L125.122 47.5452H124.758L124.662 47.8137L124.931 47.9096L124.95 47.9288ZM125.967 53.9123L126.158 54.2767L125.89 54.9287L125.161 55.1973L124.969 54.9287V54.2L125.698 53.6438L125.967 53.9123ZM125.602 66.3397L124.95 66.7041V66.052L125.506 65.7835L125.775 66.052L125.583 66.3205L125.602 66.3397ZM125.871 57.4027L125.046 57.863V57.1342L125.602 56.8657L125.967 57.0575L125.871 57.4219V57.4027ZM126.523 73.6082L126.158 73.4164L126.523 73.3205V73.589V73.6082ZM126.523 76.3699L126.254 76.5616V76.0055L126.523 76.3699ZM127.808 37.2466H127.444V36.9781L128 37.074L127.808 37.2657V37.2466Z" fill="#E23E3E"/>
<path d="M154.806 2.31741L156.256 3.30701L157.065 3.49372L157.517 3.94185L157.705 4.65137L158.966 6.0891L159.682 7.24673L159.776 7.95626L160.416 8.40438L160.604 9.11389L160.152 9.82342L160.058 10.6263L160.604 11.8773L160.51 12.3254L160.152 12.7735L160.058 13.4831L159.512 14.1179L159.418 14.7527L160.058 16.0971L159.418 16.7319L159.324 17.5348L159.588 18.5244L159.399 18.8792L158.853 19.3273L158.948 19.9621L158.759 20.3169L157.856 20.765L157.762 21.1198L157.95 21.8293L158.307 22.2774L158.119 23.0803L157.31 23.435V24.2379L156.312 24.8728L155.954 26.7586L155.691 26.9453L155.333 26.852L155.145 27.4868L154.599 28.1216L154.787 29.0179L154.693 29.466L153.79 30.1755L153.338 31.1651L152.792 31.6132L152.698 32.2481L152.152 32.6028L150.439 35.7397L149.799 36.0011L149.083 36.9907L149.535 37.6255L148.82 37.8869L148.631 39.1379L147.822 39.7727V40.7623L146.918 41.3972L147.013 42.2934L147.276 42.9282L147.182 43.283L146.467 43.5444L147.107 45.785L146.297 45.9717L145.94 46.6066L146.655 46.9613L146.749 47.2227L146.561 47.4841L146.015 47.7455V48.5484L145.205 49.6314L145.469 50.2662L145.111 50.7143L145.299 50.9757L145.394 51.6852L145.205 51.9466L145.394 52.208L146.109 52.3948L146.297 52.6562L146.203 53.0109L145.563 53.4591L145.111 54.9901L145.205 55.6997L144.942 55.8864L143.492 56.0731L143.229 56.3345L143.417 56.6893L144.057 56.876L144.697 56.2411L145.507 56.5025V57.3988L146.222 58.0336L146.128 58.4817L145.488 58.8365L145.394 58.4817H144.584L144.772 58.8365L145.412 59.0979L145.318 59.9941L145.055 59.8074H143.963L143.417 59.6207L142.608 60.1622L142.871 60.517L143.775 60.1622L144.132 60.2555L144.584 60.7036L144.321 61.3385L145.412 62.048L145.318 62.4028L144.603 63.0376L144.961 63.5791L144.697 64.2886L144.885 64.6434L145.525 64.4567L145.714 65.1662H145.074L144.716 65.7077L145.262 65.8944L145.45 66.3425L146.09 65.801L146.542 66.2491L145.732 67.052V67.8549L145.921 67.9483L146.824 67.5001L147.54 68.0416V67.4068L148.537 67.2201L150.156 66.5105L150.514 65.8757L151.06 65.4276L151.775 65.7823V64.7927L152.227 64.2513L152.585 64.1579L152.773 63.6164L153.771 62.6268L154.222 61.4692L155.22 60.3862L155.408 59.6767L156.5 59.322L157.046 58.7805L157.14 57.6975L157.404 57.0627L158.948 54.7287L159.588 53.3844L160.491 52.3014L161.131 51.0504L161.225 50.1542L162.317 48.4551L163.221 48.3617L162.957 47.0173L163.767 45.9344L165.122 43.5071L165.574 43.0589L166.477 41.1731V40.5383L167.193 39.9034L167.381 39.1006L168.096 38.8392L168.812 39.3806L169 40.0902L168.642 41.0798L168.831 41.976L168.642 42.2374L167.645 42.5922L167.739 42.9469L167.381 43.9365L166.741 43.8432L166.383 44.7394L166.477 46.0838L165.762 46.7186L166.214 47.3534L166.12 47.8016L164.953 47.8949V48.5298L164.501 49.3326L163.955 49.7808L163.861 50.2289L163.051 51.3865L162.694 52.7309L161.527 53.4404L161.884 53.9819V54.43L161.244 54.7847L161.15 55.4943L160.792 56.0357L160.152 56.3905L159.795 57.3801L159.343 57.8282L159.079 58.5378L158.082 59.1726L158.176 59.8821L156.82 60.517L156.557 61.5999L156.745 61.9546L155.653 63.4857L154.844 63.6725L154.58 63.9339L154.392 64.6434L153.677 65.1849V65.633L153.413 66.2678L152.415 66.6226L151.963 67.7055L150.796 67.9669L149.893 68.9565L148.18 69.666L147.182 70.5623L146.542 70.6556L146.09 70.4689L145.732 70.6556L145.017 70.5623L144.659 70.749L144.302 71.5519L143.135 71.6452L142.419 71.1038L141.779 71.2905V70.4876L141.591 70.3009H140.687L140.424 69.7594L140.612 69.498L140.16 69.0499L139.445 68.9565L139.257 67.8736L138.899 67.3321V66.9773L137.544 64.8301V64.0272L136.998 63.2243L137.186 62.5148L137.092 61.88L136.452 60.7223L136.904 60.0128L136.264 59.378V57.7722L136.452 57.5108L136.094 56.4279L136.358 55.7183L136 54.2806L136.264 52.2267L136.809 51.7786L136.264 50.621V49.7247L136.715 49.0152L136.527 48.3057L137.337 48.119L137.525 47.8576L137.431 47.5028L136.433 47.148L136.621 46.7933L137.261 46.4385V45.0008L137.073 44.2913L137.431 43.6564L137.337 42.9469L137.6 42.3121L137.958 42.1254L138.315 40.9677L137.506 40.7063L138.221 39.4553V37.7562L138.861 37.6628L139.05 37.4761L138.861 37.1214L138.315 36.6732L138.052 35.8704L139.05 35.3289L138.786 33.5364L138.974 32.9016L139.69 33.163L139.878 32.9016L139.332 31.8186L140.047 31.5572L140.236 31.2958L140.047 30.3062L139.407 29.1486L140.123 29.0552L140.669 28.5137L140.574 28.0656L141.026 27.4308L140.838 27.076L140.48 26.8893V26.3478L141.384 25.8997V25.2649L142.024 23.5657L141.478 23.0243L141.384 22.4828L142.193 21.848L142.457 20.5036L142.193 19.8688L142.645 19.1592L142.457 18.6178L143.266 17.3668L143.172 16.9186L143.624 16.2091L143.172 15.9477L143.078 15.593L143.982 15.4062L144.17 15.1448L143.53 14.6034V14.1552L144.339 13.259L144.076 12.8109L144.528 12.1014L144.17 11.4665L144.81 9.67405L145.356 9.31928L145.544 8.60976L146.26 8.255L146.448 7.9936L146.26 7.7322L145.62 7.47079L145.883 6.38783L146.787 5.39824L146.975 4.50199L146.881 3.69911L148.33 2.54148L149.046 2.44812L149.855 2.63483L150.57 2.28008H151.022L151.662 2.63483L151.926 2H152.735L153.902 2.35477L154.543 2.09335L154.9 2.28008L154.806 2.31741ZM136.546 53.5898L136.358 53.4031L136.264 53.5898H136.527H136.546ZM140.876 63.187L141.233 63.0936L141.422 62.8322L141.233 62.5708L140.593 62.6642L140.499 63.1123L140.857 63.2057L140.876 63.187ZM141.685 61.8426L142.137 61.4879L141.873 61.3945L141.422 61.7493L141.685 61.8426ZM141.779 27.3374L141.591 27.2441V27.3374H141.779ZM142.683 62.9256L142.231 63.2803L142.871 63.3737L143.511 63.0189L143.699 62.3841L143.342 62.4775L142.984 62.8322L142.72 62.9256H142.683ZM142.946 61.4879V61.3012H142.758V61.4879H142.946ZM143.586 48.8472H143.229L142.965 49.3886L143.417 49.65L143.775 49.2019L143.586 48.8472ZM143.398 46.7933L143.492 46.3452L143.041 46.5319V46.8866L143.398 46.7933ZM143.398 55.0461L143.492 54.7847H143.135L143.398 55.0461ZM143.662 71.0851L144.019 70.637L143.662 70.5436L143.304 70.9917L143.662 71.0851ZM144.208 51.2745L144.659 50.9197L144.754 50.565L143.944 50.6583L143.756 51.0131L144.208 51.2745ZM144.565 53.7018L145.017 53.347L144.829 53.0856L144.377 52.8989L144.114 53.5337L144.208 53.7951L144.565 53.7018ZM144.659 57.5481L144.302 57.2867L144.208 57.6415L144.659 57.5481ZM146.278 55.9424L145.827 56.1291L145.187 55.5876L145.827 55.3262L146.467 55.5876L146.278 55.9424ZM146.184 50.2102L146.09 50.4716L145.638 50.3782L145.45 50.0235L146.09 49.9301L146.184 50.1915V50.2102ZM146.09 72L145.45 71.8133L145.544 71.4585L146.184 71.3652L146.09 71.5519V72ZM145.827 63.9339L145.563 63.7471V63.5604L145.827 63.3737V63.9152V63.9339ZM148.801 33.1816V32.8269L148.443 33.0883L148.801 33.1816ZM153.131 4.22193L151.775 4.67005L152.039 6.20112L151.775 6.83595L152.133 7.54548L151.775 8.08696L152.133 8.34836L152.227 8.70311L151.587 9.78607L152.039 9.87944L152.585 10.3276L151.775 11.1304V11.4852L152.321 12.1947L152.058 13.8938L151.7 14.4353L152.246 15.593L152.152 15.9477L151.436 16.9373L151.888 17.4788L152.076 18.1136L151.982 18.375L151.436 18.8232L151.342 19.9061L151.079 20.4476L151.342 21.1571L151.248 21.5119L150.985 21.6986L150.269 21.6052L149.554 22.3147L149.912 22.5015L150.363 22.3147L151.079 22.5015L151.267 22.7629L151.173 23.1176L150.533 23.379L150.627 24.0139L149.535 24.9101L149.799 25.5449L149.705 25.8997L150.42 26.5345L150.156 27.7855L150.514 28.4204L150.156 29.0552V29.9515L149.61 30.0448L149.253 30.4929L149.799 31.2025L150.156 31.2958L151.323 29.9515L151.418 29.5033L152.509 28.8685L152.698 28.0656L152.604 27.3561L153.771 26.0117V25.657L154.222 24.9475L154.128 24.2379L154.486 23.6965L155.126 23.5097L155.22 22.5201L155.86 21.9787L155.672 21.2691L156.933 17.3294L157.385 16.7879L157.122 16.0784V15.6303L157.667 14.7341L157.31 13.0349L157.762 12.4935L157.31 11.5972L156.952 9.99146L157.216 9.73006L157.404 8.19899L156.858 7.84422L156.67 7.48947L157.027 6.85463L156.124 5.86503V5.51026L155.032 4.35263H153.94L153.3 4.09123L153.112 4.27794L153.131 4.22193ZM150.778 25.2835L150.683 25.825L150.326 25.5636L150.42 25.2089L150.778 25.3022V25.2835Z" fill="#E23E3E"/>
<path d="M191.588 102.733L191.782 103.752L191.414 104.405L191.782 105.135L190.66 107.345L191.317 107.711L191.511 108.076L191.143 108.902L191.801 109.267V109.728L191.143 109.459L190.872 109.651L189.75 109.844L189.653 110.209L190.021 110.401H190.853L191.124 110.593V111.054L190.931 111.323L189.905 111.785L189.808 112.15L190.176 113.168L190.64 113.629L190.079 114.283L189.808 114.936L189.905 115.397L190.369 116.128L190.273 116.493L189.537 117.415L189.634 118.53L189.905 119.183L188.415 119.836L188.222 120.105L189.054 120.202L189.15 120.471L188.957 121.489L189.054 122.046L188.783 122.604L188.318 122.335V122.604L188.589 122.873L188.028 125.544L187.293 125.909L188.028 126.639L187.661 127.562L187.467 129.137L186.267 129.964L186.171 130.79L185.9 131.443L184.7 132.174L184.332 132.731L183.965 132.923H182.939L182.668 132.731L181.74 133L181.372 132.808L180.811 131.982L181.082 131.52L180.811 131.251L180.617 131.905L180.347 132.174L179.979 132.078L179.611 131.251L178.876 131.52L178.605 131.251L178.412 130.598L178.605 129.945L178.412 129.291L178.508 128.83L178.044 128.177L178.412 127.158L178.315 126.697L178.876 126.14L178.141 125.313L178.876 123.468L178.508 122.911V121.893L179.34 119.318L179.147 118.952L179.244 117.761L179.708 117.204L179.611 116.742L180.076 116.089L180.811 115.82L180.54 115.455L179.882 115.82L179.515 115.551L179.418 115.186L179.785 114.36L179.592 112.784L180.153 110.113L179.785 109.459L179.979 109.19L180.172 107.614L180.54 107.249L179.979 106.692L180.347 105.116L180.811 104.559L180.908 103.175L180.443 102.714L180.25 101.888L179.882 101.984L179.147 103.175L179.708 103.54V103.906L179.515 104.098L178.025 104.194L177.754 104.386L177.386 105.116L176.651 105.212L176.748 105.674L177.309 106.404L177.115 106.673L176.457 106.942L176.186 106.75L176.554 106.019L176.09 106.116L175.819 106.385L175.916 107.115L175.722 107.384L176.38 108.114L176.186 108.479L175.258 108.94L175.064 109.671L173.768 112.169L172.936 112.265L172.665 112.457L173.129 113.745L172.201 114.302L172.568 115.224L172.201 115.32L171.369 116.051L171.272 116.781L170.15 117.146L169.956 117.511L170.15 118.068L169.782 118.722H168.95L169.221 119.375L167.924 120.49V120.951L167.363 121.22L166.996 121.124L166.164 122.046H165.796L164.964 121.681L164.693 121.95L164.422 122.681H163.958L163.687 122.488L163.126 123.142L160.436 123.046L159.875 122.777H158.482L158.211 122.584L157.553 122.777L157.186 122.681L156.992 122.411L156.16 122.508L155.696 122.142L156.16 121.412L155.889 121.22L155.057 121.124L153.761 119.644L153.858 118.991L153.49 118.53L153.122 118.434L152.755 116.858L152.193 115.57L152.464 114.283L152.368 113.552L152 112.822L152.368 112.169L152.464 111.343L152.929 110.689L152.735 110.42L152.174 110.151L152.368 109.421L153.103 108.133L152.832 107.403L153.026 106.75V105.366L153.954 105.001L154.148 104.732L153.49 104.367L154.225 103.81V103.444L153.954 102.887L154.515 102.522L154.786 101.503L154.69 101.138L155.347 100.216L155.618 99.3896L156.354 99.1206V98.3903L157.011 97.1028L157.94 96.3726L157.669 95.9114L158.037 95.1811L158.598 94.6238L159.894 92.1256L161.017 91.5683L161.481 91.1071L162.139 90.8381L162.507 89.8196L163.242 90.0118L163.706 89.8196L165.564 88.3399L166.028 87.6865L167.054 87.9556L167.325 87.6865L167.054 86.7641L167.789 86.5719L169.376 87.3983L169.569 87.2061L169.472 86.4759L169.743 86.2837L170.672 86.841L171.968 86.3798L172.626 86.7449H172.994L174.755 87.3983L175.219 87.8595L176.148 87.7634L176.419 88.0324L176.148 89.147L176.806 90.9918L177.077 90.7228L176.806 89.4353L177.734 89.1662L178.199 89.6274L177.831 90.3577L178.025 90.4538L178.682 90.1847L179.05 90.3769L179.418 90.8381H179.785L179.979 90.6459L179.785 89.9925L180.153 89.0701L180.424 87.5904L180.985 87.2253L181.643 87.1292V87.5904L181.836 87.8595L182.107 87.7634L180.985 85.9186L180.888 85.1883L181.353 84.631L181.817 84.7271L181.72 83.5357L182.281 82.8823L182.649 81.9599L182.378 81.0375L183.5 77.7129L183.23 76.9827L183.694 75.8681L183.965 72.7358L184.7 71.7173L184.429 69.6803L184.894 69.0269L184.7 68.2967L185.068 66.9131L185.164 65.5294L185.358 65.2604L185.455 62.7622L185.919 62.032L185.551 61.3017L186.209 60.8405L186.113 60.1871L186.306 59.822L186.5 58.3423L186.867 57.785V57.3238L187.332 56.4014L187.235 55.5751L188.164 54.3836L189.75 53H190.95L192.44 53.6534L193.272 53.5573L193.639 53.7495L194.007 55.6904L193.91 56.1516L194.568 57.1701L193.91 57.9964L194.181 58.1886L194.839 57.9964L195.303 58.4576L195.768 59.6491L195.574 61.1288L194.452 61.9551L194.181 62.9736L193.349 63.4348L193.62 63.7999H193.988L194.916 63.2426L195.187 63.4348L195.458 64.0882L195.361 64.4533L195.729 65.2796L194.704 65.933L195.168 66.4903L195.729 67.7778L195.168 68.5081L195.632 70.2568L196 70.8141L195.071 71.6404L194.8 73.024L194.336 73.4852L194.433 74.3116L194.8 74.7728L195.071 74.8689L194.607 75.8873L194.8 76.1564L195.632 76.4254L194.974 78.4624L194.413 79.1158L194.607 79.3848H195.168L195.361 80.8645L194.626 81.1336L194.162 81.5948L194.259 82.325L193.891 83.0553H194.82L195.013 83.3243V83.9777L193.988 84.0738L193.62 83.8816L193.523 84.3428L194.259 85.5342L193.891 85.6303L193.62 85.4382L193.523 85.8033L194.259 86.5335L193.136 86.8986L193.504 87.552L194.239 87.821L193.04 90.1271L193.136 90.3961L193.872 90.6652L194.239 91.3185L194.142 91.9719L193.581 92.4331L193.31 93.5477L193.04 94.0089L192.382 93.8167L192.111 94.0858L192.575 95.1043L192.304 96.2957L191.84 97.0259L192.575 97.6793L192.382 98.3327L191.646 99.2551L191.453 99.9853L191.182 99.8893L190.621 100.158L190.718 100.523L190.989 100.62L191.724 99.9661L192.382 100.331L192.285 101.715L191.724 101.984L191.53 102.253L191.627 102.618L191.588 102.733ZM169.492 89.3584L169.124 89.2623L167.828 90.1847H166.996L166.802 90.915L165.68 91.8374L164.945 92.2025L164.577 92.8559L163.919 93.4132L163.822 94.1434L162.062 94.7007L162.332 95.3541L161.675 96.1804L161.481 96.9106L160.823 97.1028L160.456 96.1804L160.185 96.3726L160.088 96.9299L158.327 98.3135L158.792 99.332L158.056 100.985L157.224 102.099V102.656L156.566 103.214L157.031 104.04L155.909 106.711L156.102 107.365L156.005 107.73L156.566 108.556L155.541 109.748L155.638 110.574L156.199 111.131L155.638 112.246L156.296 113.264V114.552L157.224 116.031L157.321 116.858L157.979 118.145L158.637 118.414V118.683L159.295 119.606L160.417 119.241L160.688 119.433L161.423 119.529L162.158 119.337L162.99 119.529L163.184 118.972L164.77 118.703L166.531 117.319L166.164 116.666L167.189 116.301L167.383 116.031L167.189 115.474L168.389 114.283L169.124 114.014V112.899L169.956 112.073H170.614V110.958L171.349 110.228L171.62 109.498L171.988 109.402L172.452 109.767L172.259 110.42L172.452 110.785L172.723 110.593L172.994 109.209L172.529 108.383L172.626 108.114L173.284 107.845H174.019L173.923 107.192L174.484 106.077L174.387 105.347L175.045 104.521L175.316 103.79L175.219 103.329L176.051 102.503L176.612 100.927L177.734 100.197L177.463 98.448L177.928 97.7946L177.831 96.9683L178.489 95.7768L178.296 94.9505L177.831 94.3932L177.096 94.2971L176.728 93.8359L176.535 92.7214L175.335 91.7029L174.967 91.1456L174.31 90.8765L173.574 91.1456L173.303 90.9534V90.6844L173.574 90.4922H174.039V90.1271L173.768 89.9349L172.646 90.2039L171.91 89.8388L171.349 89.2815L171.252 88.9164L170.13 88.5513L170.033 89.3776L169.763 89.5698L169.492 89.3776V89.3584ZM164.383 88.8972L164.113 88.8011L164.016 88.5321H164.48L164.383 88.8972ZM171.62 117.78L171.349 118.145L171.252 117.684L171.62 117.78ZM171.814 87.8018L171.91 88.0709L172.104 87.8018H171.833H171.814ZM178.044 91.7605V92.1256L178.605 92.4908L178.799 91.8374L178.237 91.4723L178.044 91.7413V91.7605ZM179.437 128.753H179.708L179.611 128.484H179.244L179.437 128.753ZM179.901 119.164L180.095 118.895L179.727 118.799L179.631 119.068L179.901 119.164ZM181.391 99.7932L180.656 100.062L180.385 100.331L180.579 100.696L180.482 101.811L180.753 101.907L181.488 101.715L181.585 101.446L181.217 100.792L181.411 100.427L182.069 99.9661L181.798 99.601L181.43 99.7932H181.391ZM180.927 98.6786L180.559 98.5825L180.753 98.8515H181.314L180.946 98.6594L180.927 98.6786ZM181.024 126.908H180.83L180.733 127.177L181.004 126.908H181.024ZM182.32 130.79L182.514 130.06L182.243 130.156L182.049 130.521L182.32 130.79ZM183.055 117.78L183.423 117.588L183.52 117.223L183.055 117.319L182.959 117.588L183.055 117.78ZM184.081 131.712L184.816 131.251H183.984L184.081 131.712ZM184.816 118.337L184.449 118.895L185.106 118.703L185.474 117.511L184.816 117.972V118.337ZM184.913 121.835L185.184 121.643L185.281 121.278L184.623 121.374L184.526 121.739L184.894 121.835H184.913ZM185.281 111.957L184.816 111.4L184.913 112.054L185.281 111.957ZM185.184 110.305H185.455L185.261 109.844H184.99L184.894 110.209L185.164 110.305H185.184ZM185.919 89.1854V88.7242L185.358 88.3591L185.164 88.7242L185.435 89.3776L185.9 89.1854H185.919ZM185.261 109.113L185.822 109.209V108.844L185.455 108.748L185.261 108.94V109.133V109.113ZM185.822 114.283L185.455 114.187V114.552L185.822 114.283ZM186.48 121.854L187.312 121.95L187.97 121.681L188.067 121.316L187.409 121.124L186.383 121.393L186.19 121.662L186.461 121.854H186.48ZM187.506 116.973H186.77V117.434L187.699 117.626L187.893 117.896V118.357L188.26 118.549L188.628 117.069L187.893 117.165L187.525 116.973H187.506ZM187.235 122.873V122.604L186.867 122.873H187.235ZM187.796 90.4922L188.164 90.3961L188.434 89.8388L188.164 89.7427L187.602 90.2039L187.796 90.473V90.4922ZM187.989 120.374L187.796 120.182L187.893 120.451L187.989 120.355V120.374ZM188.26 78.6738V78.3087L188.067 78.2126L187.873 78.5777L188.144 78.8468L188.241 78.6546L188.26 78.6738ZM187.893 104.04L187.989 104.309L188.183 104.04H187.912H187.893ZM188.821 111.688H189.479L188.918 111.227L188.647 111.496L188.841 111.688H188.821ZM189.015 100.158L189.673 99.8893L189.208 99.7932L188.841 99.9853L189.034 100.178L189.015 100.158ZM189.847 129.406L189.286 129.675L189.092 129.31L189.924 129.118L189.828 129.387L189.847 129.406ZM190.679 72.8511L190.95 72.755L190.679 72.3899L190.408 72.6589L190.679 72.8511ZM192.904 102.368L192.536 102.464L192.266 101.907L192.536 101.715L193.098 101.984L192.904 102.349V102.368ZM192.711 108.172L192.343 108.268L192.246 107.903L192.517 107.634L192.885 107.73L192.691 108.191L192.711 108.172ZM192.982 99.601L192.788 99.8701L192.42 99.6779L192.324 99.2167H192.982V99.5818V99.601ZM192.788 104.943L192.885 105.405L192.517 105.597L192.324 105.328L192.517 104.963H192.788V104.943ZM192.691 110.478L192.788 110.747L192.595 111.016L192.324 110.824V110.459H192.691V110.478ZM193.349 97.1028L192.614 97.0067V96.6416L193.349 96.3726L193.717 96.5647L193.814 96.9299L193.349 97.122V97.1028ZM194.839 89.8196L194.646 89.9157V89.5506L194.839 89.8196Z" fill="white"/>
<path d="M212.094 90.8537L212.358 90.7573L212.623 91.0272L212.717 91.7598L212.264 92.4924L211.453 92.0297L211.547 92.396L212.453 93.1286V94.5168L211.642 95.635L211.736 96.0013L212.377 96.464L211.66 98.2184L210.849 98.3148L211.396 98.8739L211.208 99.8957L210.66 100.551L211.302 100.918L210.66 101.747L210.396 102.402L209.226 103.79L209.943 104.716L209.226 105.448L208.774 105.352L207.868 106.47V106.74L208.132 106.933L208.774 106.47L209.226 106.374L209.321 106.74L208.321 108.128L208.415 108.591L209.132 108.957L209.321 109.323L209.226 109.69L208.415 109.786L208.057 110.056L207.792 111.637L208.792 111.271L209.151 111.463L208.887 112.119L208.245 112.582L207.245 113.7L206.887 113.507L206.623 113.603L206.264 114.336H206.623L207.17 113.873L207.528 113.97L207.717 114.336V114.991L207.453 115.647L208.264 115.743L208.453 116.013L208.264 116.746L207.717 117.016L207.453 117.671L208.17 117.401L208.264 117.671L207.906 118.23L208 118.597L207.811 119.522L208.811 120.91L207.811 121.932L208.075 122.395L208.434 122.202L208.792 121.643L209.151 121.45V120.987L210.698 120.717L212.057 120.062L212.321 119.329L213.774 117.941L214.132 117.286L214.491 117.189L216.038 115.705L216.585 115.435L216.849 114.779L217.396 114.317L217.66 113.661L218.302 113.295L218.943 113.391L218.849 112.659L219.66 111.54L220.755 110.615L221.66 109.497L222.566 109.304V108.186L223.208 106.894L224.302 107.357L223.943 106.894L224.849 105.14L225.491 104.947L226.208 104.022L226.396 103.462L226.755 103.366L226.943 103.096V102.363L228.038 101.997L228.302 101.727L228.208 101.457L228.66 99.9728L229.302 99.78L230.208 98.5847L230.566 98.4883L231.472 96.5411L232.283 96.3483L232.736 95.7892L232.83 95.0566L233.283 94.2276L234 93.3022L234.094 92.8394L234.359 92.5695L235.075 93.3986L235.17 92.2032L236.623 92.1068L236.887 92.5695L236.434 92.3767L236.17 92.8394L236.358 93.5721L237 93.7649L236.811 93.9577L236.906 94.6132L236.358 94.054L236 94.1504L235.642 93.9577L235.283 93.3986L234.566 94.5939V96.2519L234.302 96.9074L233.943 97.1002L233.396 96.4447L232.849 97.1002L232.132 98.4883V99.6065L231.679 100.628L231.038 101.091L230.679 100.995L230.038 100.339H229.585L229.679 100.898L230.038 101.457L229.943 101.824L229.038 103.019L228.396 103.212L228.943 104.041L228.491 104.696L227.849 104.966L227.208 105.988L226.208 107.01L226.113 107.473L225.019 109.323L224.208 109.227L223.849 110.711L223.132 111.174L222.038 112.562L221.491 112.832L221.226 112.639V112.177L220.868 112.273V113.295L220.679 114.028L219.868 115.319L219.509 115.416L218.792 116.341L218.151 116.611L217.792 115.878L217.245 116.148L217.151 116.881L217.34 117.536L216.34 118.095L215.34 119.214L214.792 119.58L214.34 120.235H213.623L213.17 120.602L213.717 121.257L213.623 121.624L212 123.204L211.283 123.474L210.736 124.033L210.472 124.593L209.925 124.323L209.566 124.515L208.849 125.807L208.491 126L207.943 125.73L206.849 126L206.585 125.73L206.396 125.171L206.132 124.901L205.491 124.805L204.679 125.364L203.774 125.094L203.509 124.438L202.698 124.168L202.245 123.609L201.528 123.147L200.075 121.662L200.17 121.199L199.717 119.079L199.811 118.346L199.094 117.691L199.642 117.131L199.283 115.743L199.642 114.355L199 113.333L199.642 112.042L199.377 111.386L199.472 110.654L199.925 110.095L199.83 109.362L200.094 109.169L199.83 108.147L200.019 107.781L200.377 107.588L200.283 105.737L200.736 105.178L200.642 104.716L200.906 103.597L201.623 102.479L201.528 101.747L202.075 100.166L202.528 99.6065L203.623 96.5604L203.528 96.2905L204.075 95.9241L204.623 94.536L205.075 94.0733L205.792 91.8562L206.509 90.738L207.151 88.6944L207.868 88.4245L208.321 87.4027L208.679 87.2099H209.679L210.396 87.0171L210.755 87.2099L211.019 87.8654L211.83 88.0582L212.019 89.3499H212.472L212.736 89.5427L212.472 90.5645L212.208 90.3717L212.019 90.6416L212.283 91.2007L212.189 90.8344L212.094 90.8537ZM202.132 119.079L201.943 118.809L201.302 119.079V119.445L201.566 119.638L202.113 119.079H202.132ZM201.679 121.855L202.491 121.662V121.199L202.302 120.93L201.66 121.026L201.396 121.296L201.302 121.951L201.66 121.855H201.679ZM203.132 105.39L203.226 105.12L202.868 105.217L203.132 105.41V105.39ZM203.321 116.399V116.033L203.057 115.84L202.868 116.302L203.321 116.399ZM204.226 107.415L204.585 107.222L204.396 106.856L204.132 106.759L203.943 107.125L204.208 107.395L204.226 107.415ZM204.132 118.327L204.396 118.423L204.849 117.401H204.491L203.943 118.057L204.132 118.327ZM205.491 117.96V118.327L204.849 119.156L204.491 119.252L204.396 119.715L204.038 119.985V120.255L204.585 119.888L205.226 120.081L205.491 120.814L205.849 121.084L206.113 120.814V120.448L205.566 119.426L206.208 117.941V117.016L206.566 116.36L205.849 116.553L205.302 117.575L205.491 117.941V117.96ZM205.396 110.827L205.585 110.461L204.943 110.827H205.396ZM205.132 108.321L205.226 108.591L205.491 108.494L205.849 107.935H205.302L205.113 108.302L205.132 108.321ZM206.132 105.911L206.321 105.641L205.962 105.448L205.698 105.911H206.151H206.132ZM207.038 107.395H206.679L206.038 107.954L206.755 108.147L207.113 107.685L207.019 107.415L207.038 107.395ZM206.585 112.215H206.943L207.208 111.945L206.566 111.675L206.377 111.945L206.566 112.215H206.585ZM206.849 98.7004L207.113 98.1413L206.849 98.0449L206.585 98.7004H206.849ZM207.038 109.805L207.226 109.613L206.962 109.42L206.774 109.786H207.038V109.805ZM206.774 121.103L206.868 121.469H207.132L207.396 120.64L207.208 120.274L206.755 120.544V121.103H206.774ZM206.962 118.79L207.321 118.886L207.415 118.327L206.962 118.423V118.79ZM207.415 122.221L207.321 121.855L207.132 121.759L207.038 122.318L207.396 122.221H207.415ZM207.509 105.198V104.542L207.151 105.005V105.371L207.509 105.178V105.198ZM207.604 103.077L207.698 102.71L207.434 102.614L207.245 102.98L207.434 103.25L207.623 103.058L207.604 103.077ZM207.604 104.369L207.415 103.809L207.321 104.272L207.585 104.369H207.604ZM208.509 114.182L208.415 115.204L208.151 115.107L208.057 114.375L207.868 114.182L208.057 113.912H208.604L208.509 114.182ZM219.642 66.3303L220.094 66.793L220.811 67.0629L220.906 67.4292L220.453 67.9883L220.906 68.451L221.094 69.8391L221.736 70.5717L221.83 71.3044L221.019 71.6707L220.83 71.9406L221.019 72.5961L221.66 73.1552L221.472 73.5215L220.377 73.8878L220.189 75.0831L219.642 75.5458V76.2013L219.189 76.3941L218.83 75.7386L218.566 76.0085L217.849 75.5458L217.585 75.8157L217.321 76.6448L216.962 76.7412L215.962 76.3748V77.3003L215.698 77.5702L215.057 77.6666L213.887 78.4956L213.528 78.592L213.34 78.0329L213.434 77.6666L211.981 77.3967L211.34 76.9339L210.981 76.3748L210.623 76.1821L209.811 75.2566L209.359 75.353L209 75.1602L209.189 74.4276L209.094 73.5986L208.377 73.1359L208.189 72.7696L209 71.8442L208.642 71.7478L208.189 70.5525L209 68.9716L208.736 68.3161L209.642 67.3907L209.547 66.8316L209.906 66.7351L210.717 65.4434L211.358 65.6362L212.358 65.3663H214.528L215.245 65L216.415 65.1928L217.415 65.9254L218.585 66.1953L219.302 66.0989L219.66 66.2917L219.642 66.3303ZM208.962 94.8445L208.604 94.7481L208.698 95.4036L208.962 95.5964V94.8638V94.8445ZM209.057 110.48L208.792 110.75L208.604 110.48L208.698 110.287L209.057 110.48ZM209.509 99.8379L209.698 99.4716H209.34L209.075 99.9343L209.528 99.8379H209.509ZM209.151 101.226L209.509 101.785L209.868 101.052L209.509 100.783L209.151 100.879V101.245V101.226ZM209.509 76.6062L209.698 76.3363L209.962 76.6062L209.774 76.8761L209.509 76.6062ZM209.962 98.5461L209.868 98.2762L209.774 98.5461H209.962ZM210.321 101.419L210.509 101.226L210.245 101.033L209.981 101.226L210.34 101.419H210.321ZM211.491 94.3818L211.755 93.8227L211.302 93.4564L211.113 94.189L211.208 94.5553L211.472 94.3625L211.491 94.3818ZM217.019 77.5316L216.925 78.6498L216.472 79.0161L216.208 78.8233L216.113 77.9943L216.566 77.3388L216.83 77.2424L217.019 77.5123V77.5316ZM218.189 77.8979H217.547L217.642 77.4352L218.189 77.3388L218.453 77.6087L218.189 77.8786V77.8979ZM218.094 76.7797L218 76.9725L217.811 76.7797L217.906 76.5098L218.094 76.7797ZM221.075 75.3916L220.717 75.1988L221.075 74.9289V75.3916ZM222.887 110.654L222.792 110.461L222.604 110.827L222.792 111.02L222.887 110.654ZM224.604 107.511L225.151 107.607L225.245 107.145L224.34 107.338L224.604 107.53V107.511ZM226.321 106.219L226.585 105.757L226.226 105.853L226.321 106.219ZM230.66 102.71L230.208 102.98H229.849L229.66 102.788L230.566 102.229L230.83 102.325L230.642 102.691L230.66 102.71ZM233.189 98.5461L233.453 97.987L233.717 98.0834L233.811 98.4498L233.623 98.8161L233.17 99.0088V98.5461H233.189ZM233.83 95.5L233.642 95.1337L233.453 95.5L233.642 95.8663L233.83 95.5ZM235.736 95.2301L235.019 95.0373L235.66 94.5746L235.849 94.8445L235.755 95.2108L235.736 95.2301Z" fill="white"/>
<path d="M235.92 79.6195L237.975 80.07L238.344 79.9762L239.468 80.6144L240.302 81.3278V81.6845L239.565 81.7783L239.294 81.9661L239.391 83.3177L240.418 84.2188L240.515 84.6693L239.856 84.9321L239.391 85.3827L239.662 86.9971L239.197 87.5415L239.1 88.3487L238.44 88.7993H237.975L237.607 89.3437L236.87 91.3336L237.432 92.4975L237.994 92.5913L238.363 93.2296L238.46 93.943L239.197 93.8491L239.662 94.844L239.856 94.5812L240.515 94.9379L241.543 95.9328V96.6462L242.008 97.1906L242.668 97.4534L243.327 97.2657L243.598 97.0029L244.432 98.2606L243.598 99.0679L244.064 99.1617L244.801 99.8751H245.46L246.119 99.3307L246.488 99.5184L246.856 99.969L246.759 100.607L246.953 100.964L247.612 101.152L247.806 101.414L247.612 102.128L248.271 102.316L249.105 102.222L249.668 101.865L249.765 101.602L251.529 101.058L252.188 100.701L252.925 100.607L254.321 101.321L254.224 101.677L252.266 102.222L252.169 102.935L251.044 103.123L250.85 103.836L250.017 104.549V105L249.551 106.164L249.648 106.521H250.773L250.307 107.328L249.939 107.422L249.28 106.877V107.516L250.307 108.229L249.648 108.942L250.676 109.749V110.463L251.238 110.819L251.51 110.632V110.181L251.141 109.092L251.335 108.736L251.064 108.191H251.626L251.529 108.642H252.091L253.216 109.186L253.41 109.825L253.313 110.181L252.576 110.087L252.382 110.35L252.945 111.345L253.042 112.058L253.41 112.603L252.576 114.142L252.848 114.781L253.41 115.137L253.507 115.494L252.77 116.132L252.867 117.671L253.235 118.122L253.042 118.479L252.382 118.666L252.576 119.661L252.111 120.112L251.452 120.375L251.258 121.182L251.355 121.895L250.695 122.609L250.424 123.866H249.687L249.493 124.054L249.299 125.049L248.64 125.237L248.175 126.044H247.806L245.945 127.133L245.848 128.034L244.645 128.841L243.909 129.104L243.346 129.911L242.222 129.648L241.95 128.841L241.291 129.292L241.194 129.93L239.798 130.381L239.429 130.831L238.693 130.737L237.199 131L236.54 130.906L235.241 130.193L234.873 129.555L234.136 129.911L234.039 129.198L233.38 129.461L232.352 128.822H231.886L230.859 128.109L230.956 127.471L229.831 126.926V126.288L228.9 125.481L228.803 124.674L228.241 123.96L228.512 123.059L228.144 122.158L228.338 121.801L227.679 121.088L228.338 120.281L227.873 119.286V118.648L228.066 118.385L228.726 118.122L228.629 117.033L229.753 115.869L229.947 115.231L232.08 115.137V114.781L231.615 114.236L233.205 113.598L233.302 113.241H233.767L234.039 113.053L234.136 112.697L235.726 111.608L235.823 110.97L236.947 110.519L237.141 109.712L238.634 108.905V108.004L237.704 106.915L237.51 106.108L236.773 105.845L236.676 105.038L235.842 103.949L236.036 103.235L235.571 101.79H235.105L234.368 101.527L233.166 100.72L232.972 99.9126L232.042 98.8238V98.2794L231.014 97.2845L230.917 96.8339L231.111 96.1206L230.917 95.7639L229.889 96.2144L229.152 95.0505L228.493 94.6939V94.0556L227.291 91.5401L227.388 90.9957L227.194 90.7329V88.743L227 88.4801L227.097 86.9408L227.465 85.9458L227.737 84.4065L228.105 83.956L228.202 82.7921L228.939 82.1538L229.307 81.2527L229.87 80.9899L230.432 80.3516L231.091 79.9949L234.155 79.4505L234.814 79L235.086 79.0939L235.551 79.6383L236.017 79.5444L235.92 79.6195ZM239.274 111.251L238.615 111.608H238.15L237.49 112.866H236.656L235.454 114.123L234.795 114.574L233.961 115.569L233.03 116.207L232.759 116.845L232.488 116.939L231.188 118.103L231.091 118.817L230.82 119.361L230.917 119.718L230.645 120.431L230.839 120.975L230.568 122.064L230.936 122.778L230.665 123.04L230.936 123.228L231.033 123.679L232.623 126.119L235.609 127.283L237.103 127.471L237.936 126.832L238.673 126.739L239.41 125.931V125.481L240.244 125.03L240.438 124.768L240.244 124.054L241.271 123.247L241.175 122.609L242.008 121.52L242.202 120.807L242.939 120.093L242.571 118.554L243.133 117.559L242.571 116.658L242.377 115.118L241.814 114.48L241.717 114.123L241.989 113.129L241.252 112.941L240.787 112.584L241.058 111.871L239.662 111.157L239.294 111.251H239.274ZM236.482 86.3776L236.579 85.7393L237.044 85.1011V84.3877L237.316 83.4866L235.92 82.2289L235.357 81.9661L234.524 82.0599L233.864 82.3227L232.934 83.4115L232.468 85.6643L232.1 86.2087L232.759 86.6592L233.127 88.3675H233.593L234.795 89.0809L235.823 88.0859L236.656 86.7343L236.463 86.3776H236.482ZM235.28 102.86H235.008L235.105 102.409L235.299 102.86H235.28ZM238.634 95.1068L238.44 94.7502L238.344 95.1068H238.615H238.634ZM245.344 98.2606L245.072 98.6173V98.2606H245.344ZM245.615 125.838L245.809 126.1L246.468 126.363V125.819L245.809 125.556L245.615 125.819V125.838ZM245.983 115.926L246.255 116.564H246.72L246.992 116.376V116.02L246.526 115.569H246.061L245.964 115.926H245.983ZM246.817 107.459L246.449 107.271V107.628L247.011 107.816L246.817 107.459ZM247.476 110.97H247.845V110.613L247.379 110.707L247.476 110.97ZM247.67 113.579L248.33 113.767L248.892 113.316H249.629L249.357 113.053L248.621 112.96L247.787 113.222L247.69 113.579H247.67ZM249.066 112.134L250.734 111.777V111.514L249.997 111.157L248.97 111.514L248.698 111.326L248.601 110.97H248.33L248.233 111.326L248.698 112.134H249.066ZM251.025 113.035L250.753 113.129L250.656 113.485L252.053 113.297L252.247 113.035L251.878 112.847L251.413 111.852L251.044 111.946L251.316 112.847L251.044 113.035H251.025ZM250.753 117.54H251.122V117.09H250.753V117.54ZM258.393 98.2606L257.463 99.5184L256.066 100.157L255.233 101.245L254.864 101.058L254.67 100.419L254.302 100.232L253.565 100.326L253.468 99.969L253.74 99.3307L254.302 98.8801L254.961 99.143L255.233 98.9552V98.317L255.97 98.0541L256.163 98.8614L256.823 98.6736V97.2282L257.482 97.1343L258.684 97.9415L258.413 98.2043L258.393 98.2606ZM267.701 90.057L269 91.3148L268.806 91.7653L268.244 92.122L267.778 93.0231L266.188 94.3747H265.355L264.695 94.6375L263.861 95.6325L262.368 96.1769L261.166 96.9841L260.798 97.6224L259.499 98.0729L258.762 97.9791L258.956 97.1718L258.393 96.5336L258.587 96.2708L259.15 96.0079L260.74 94.6563L261.767 94.2996L262.795 93.4924L263.92 93.6801L264.114 93.4173L263.842 92.8729V92.5162L264.211 92.2534L264.947 92.3473L265.607 92.704L265.801 92.3473L265.335 91.8029L265.432 91.4462L266.169 91.1834L266.906 91.2773L267.468 90.8267V90.0195L267.74 90.1134L267.701 90.057Z" fill="white"/>
<path d="M274.204 54.9121L274.924 55.4557L275.19 56.168L275.834 56.5242L276.024 56.7867L275.569 57.499L276.024 58.0426L275.834 59.3923L276.024 59.7485L275.474 60.3859L275.569 60.8358L275.209 61.8293L275.398 62.0917L275.948 62.3542L275.682 64.1538L275.417 64.4162L275.967 65.0536L275.512 65.9534V66.5907L275.777 66.8532L275.512 67.3968L275.701 67.753L275.607 68.8402L275.796 69.1964L275.436 69.9087L275.796 70.5461L275.436 71.0897L274.716 71.3522L274.905 71.7083L275.36 72.0645L275.265 72.5144L275.986 73.3205L274.716 75.57L275.171 76.2073L274.981 76.751L275.436 77.4633L274.886 78.1007L274.791 78.5506L274.336 79.1879L275.436 80.3501L275.171 80.9875L275.265 81.6249L274.905 82.2622V82.7121L274.09 83.7994L274.545 84.4367L274.355 84.6992L273.711 85.0554V85.4115L274.071 85.3178L274.716 85.674L274.355 86.3113H273.9L274.355 86.9487L273.635 87.661L273.73 88.3734H274.545L274.355 88.7295L273.995 88.6358L272.991 89.1794L273.635 89.8918L273.37 90.1542L272.915 91.3164L272.46 91.8601L272.915 92.1225L273.275 92.0288L273.635 92.5724L273.37 93.8284L273.104 94.0908L273.654 94.7282V95.0844L273.009 96.3403L273.199 96.6028L273.294 98.0462L272.289 98.3086L272.744 99.021L272.649 100.015L273.104 100.727L272.839 100.914L272.573 100.821L272.308 101.008L272.043 101.645V103.258L271.777 103.895L271.872 104.251L272.422 104.795L272.327 105.151L271.417 105.601L271.152 107.138L271.512 107.044L272.062 106.594L272.422 106.501L272.611 105.788L273.066 105.338L272.972 104.701L273.332 104.607L274.242 103.707L274.147 103.258L274.791 102.545L275.512 100.389L276.422 100.127V99.6771L276.782 99.0397H277.597L278.147 98.5898L277.787 98.1399L277.976 97.8775L278.697 97.615L278.962 97.3526L278.412 96.809L278.507 96.4528L279.682 95.6467L279.872 94.5595L280.232 94.0158L280.592 93.8284L280.953 93.3785L281.597 93.116L282.147 91.7663L283.246 90.8666L283.436 90.5104L283.891 90.4167L285.161 89.2544L285.976 89.3481L286.242 89.0857L286.336 88.6358L288.251 88.0922L288.896 87.736L289.711 87.8297L290.071 87.6423L290.431 87.736L291.076 87.3798L292.175 87.5673L292.725 88.0172H293.37L295.19 89.2732V89.9855L295.645 90.4354L295.834 91.1477L296.289 91.6914L296.384 92.0475L295.019 92.235L294.924 92.5912L296.024 93.1348L296.213 93.3972L296.024 94.4845L296.934 94.3908L297.199 95.0281H295.739L295.474 95.2906L296.118 96.0966L296.024 96.4528L295.209 97.2589V98.0649L294.488 98.3274L294.223 98.5898L294.488 98.7773L295.588 98.6836L295.948 98.871L295.038 99.5834L295.133 99.9395L294.772 100.746L294.412 100.839L293.047 100.577L292.782 100.764L292.972 101.027L293.616 100.933L293.882 101.195L294.147 101.908L293.502 102.095L293.313 102.358L293.578 102.62L294.128 102.264L294.488 102.358L294.943 102.901V103.258L293.123 103.351L292.763 103.895L292.953 104.157L293.863 104.251L293.957 104.514L293.768 104.87L292.953 105.413L293.142 106.126L291.777 106.313L291.512 106.501L291.701 106.763L292.801 107.119L293.616 106.932L293.806 107.194L293.54 107.382L292.081 107.288L291.36 107.475L291.171 107.738L291.531 108.375L290.886 108.469L290.981 107.757L290.716 108.019L290.81 108.375L290.355 109.087L291.36 109.444L291.55 109.706V110.156L290.905 110.343L291.171 110.981L291.076 111.243L290.431 111.506L290.242 111.768L290.431 112.031H290.886L291.531 112.293L290.716 113.005L290.261 114.355L290.526 114.805V115.161L289.161 115.611V116.061L290.166 115.873L290.355 116.136L290.261 116.848L289.995 117.111L288.536 116.923L288.27 117.111H289.085L289.73 117.823L289.18 118.46H288.365L288.46 118.817L290.185 119.004L290.28 119.36L288.82 119.623L288.27 119.979L288.365 120.691L288.175 121.328L288.536 121.966L287.891 122.772V123.128L287.626 123.316L287.36 124.122L288.081 124.572L287.986 125.021L287.436 125.565L287.341 126.277L286.886 126.727L285.882 126.821L285.787 127.083L285.976 127.271L286.886 127.177L287.246 127.365L287.891 127.177L288.081 127.44L287.986 127.702H287.341L286.981 128.246L287.246 128.883L286.336 129.783L287.436 130.045L288.081 129.858V130.214L287.626 130.851L287.076 130.758L287.341 131.301L287.076 131.564L285.616 132.107L285.806 132.464H286.716L287.531 131.826L288.251 132.014L288.517 131.114L288.877 131.02L289.882 131.376L290.071 132.014L290.336 131.92L290.431 131.208L289.787 130.495L289.882 130.233L290.526 129.877L290.716 130.42L291.076 130.233L290.81 129.595L291.171 128.958L292.346 128.152L292.441 127.702L292.991 127.44L293.54 126.896L293.635 126.446L294.45 125.734L294.81 125.021L295.91 124.028L296.554 123.84L297.199 124.834L296.384 126.184L296.194 126.99L295.19 127.533L295.095 128.246L294.829 128.508L294.185 128.246L294.374 127.608L294.185 127.421L293.825 127.515L293.635 128.058L292.915 128.771V129.127L293.559 128.677L293.919 128.133L294.109 128.321L294.204 128.958L293.938 129.595L292.934 129.952V130.308L292.668 130.851L291.948 130.495L291.588 131.657L291.227 132.201L290.507 132.557L290.242 133.195L289.237 133.644L289.047 133.907L289.313 134.451L289.218 134.713L288.573 134.526L288.024 135.069L287.929 135.519L287.114 135.875L286.204 135.519L285.199 135.969L284.554 135.613L284.1 135.8L283.379 135.538L282.829 135.088L283.019 134.282L282.924 133.926L284.024 133.738L283.569 133.195L282.924 133.382L282.735 133.738L282.829 134.094L282.014 134.188L281.749 133.476L281.483 133.213H280.308L280.213 132.126L280.024 131.77L279.474 131.32L279.379 130.87L278.924 130.233L279.019 129.689L278.374 129.239L278.924 128.077L277.919 127.721L278.185 127.008L277.825 125.115L278.374 124.403L278.109 123.597L278.469 120.897L279.019 120.354L279.664 120.091L279.114 119.641V119.379L279.474 118.835L279.114 118.198L279.379 117.654L280.024 117.392L279.834 117.129V116.323L280.024 115.967H280.668V115.611L280.213 115.255L280.573 114.711L280.384 114.355L280.649 113.549L280.915 113.362L280.82 112.368L281.009 112.106L281.654 111.843L281.559 111.393L282.28 110.306L281.635 110.044L281.73 109.687L282.28 109.425L282.185 108.338L282.64 107.7L282.545 107.063L282.905 105.619L283.171 105.432L282.981 104.72L284.156 103.82L283.796 103.276L284.517 102.564L283.872 102.302L283.682 102.039L283.872 101.683L284.592 101.42L284.687 100.614L285.237 99.902V99.4521L285.692 98.1962L285.597 97.7463L286.867 97.2026L286.773 96.9402L286.223 96.4903L286.128 96.2279L287.038 95.5905L286.583 94.9531L287.038 94.5032L287.682 94.2408L287.872 93.9783L287.607 93.341L287.967 91.7289L287.777 91.3727H287.322L286.602 91.6351L286.147 92.085L285.502 92.2725L284.403 93.0786L284.213 93.7909L283.209 94.3345L283.019 95.1406L282.109 95.7779L281.919 96.4903L281.104 97.2026L281.009 97.915L280.554 98.2711L279.834 98.4586V99.4521L279.569 99.6396L278.204 99.7333L278.393 100.896L278.033 101.345H277.578L277.844 101.983L277.654 102.789L277.104 103.689L276.744 103.876L276.555 104.776L276.194 104.963L274.735 106.576L274.829 107.569L274.185 107.925L274.09 108.375L273.37 109.275V109.631L272.725 110.793V111.243L272.081 111.693L271.436 112.949L269.521 116.005L269.332 118.16L268.611 118.517L268.156 119.604L267.341 120.316L267.436 120.766L267.076 121.572L266.166 122.828L265.446 123.091L265.256 123.99L264.346 124.347V124.796L264.081 125.34L262.981 125.153V124.89L262.526 124.347L261.256 124.253L260.251 123.353L260.346 122.903L260.081 122.453V122.097L259.171 121.385L259.265 120.747L259 120.11L259.095 118.573L259.455 117.411L259.19 117.223L259.095 116.511L259.284 114.899L259.19 114.261L259.55 113.718V112.912L260.194 109.95L260.555 109.406L260.46 108.413L260.82 107.063L260.63 106.426L261.085 105.619V105.17L261.446 104.457L261.085 103.82L261.275 103.464L261.54 101.121L261.806 100.483L262.071 100.296L261.711 99.7521V98.2149L262.261 97.4088L261.9 96.4153L262.45 95.703L262.261 95.0656L262.45 94.4283L262.261 94.0721L262.355 93.0786L262.621 92.4412V91.8038L262.431 91.4477L262.621 91.1852L262.81 89.7418L263.076 89.1044L262.981 88.4671L263.626 87.8297L263.076 87.1924L263.626 85.2053L263.436 84.493L263.626 83.7806L264.081 83.3307V82.6934L264.27 82.4309L264.175 82.1685L263.626 81.8123L263.815 80.4626L263.72 78.9255L264.27 78.4756L264.081 77.6695L264.175 77.3133L264.991 76.601L264.896 76.2448L263.986 75.0826L264.081 74.5389L264.725 73.9953V73.6391L264.175 72.4769L264.725 71.6708L264.991 69.8712L264.896 69.0652L265.54 68.3528V67.9029L266.09 67.1906L266.185 64.0413L266.545 63.4039L266.28 62.5979L266.469 62.2417L267.114 61.9792L266.754 61.0795L267.569 59.0174L267.114 58.3051L268.289 56.243L268.194 55.6994L268.46 55.437L268.649 54.7246L270.109 53.1875L270.754 53L271.758 53.5436L272.858 53.6374L274.223 54.0873L274.412 54.7996L274.204 54.9121ZM262.735 119.529L262.829 119.266H262.469V119.623L262.735 119.529ZM265.199 126.465L265.104 126.821L264.744 126.634L264.839 126.371L265.199 126.465ZM265.464 125.021L265.104 125.284L265.199 125.021H265.464ZM270.659 108.019L271.209 108.113L270.943 107.569L270.678 107.663V108.019H270.659ZM272.744 89.3106L272.555 89.0482L272.46 89.4044L272.725 89.3106H272.744ZM272.839 107.944L272.649 107.757L272.555 108.113L272.82 107.925L272.839 107.944ZM273.199 103.632H273.559L273.199 103.726V103.632ZM273.919 91.129L273.825 91.3914L273.559 91.204L273.749 90.9415L273.938 91.129H273.919ZM274.185 56.393L274.374 56.6554H274.735V56.2993L274.469 55.9431L274.109 56.0368L274.204 56.393H274.185ZM274.374 104.082L274.564 104.345L275.209 104.701V104.064L274.659 103.707H274.299L274.393 104.064L274.374 104.082ZM278.735 124.684L279.455 124.778L279.91 124.234L279.265 124.047L278.545 124.234L278.355 124.497L278.716 124.684H278.735ZM280.005 129.895L280.194 129.445L279.834 129.352L279.569 129.614L279.664 129.97L280.024 129.877L280.005 129.895ZM279.91 128.808L280.005 128.546L279.815 128.358L279.72 128.808H279.91ZM280.27 96.0591H280.46V95.7967H280.27V96.0591ZM280.991 131.432L281.445 130.795L281.085 130.533L280.441 130.795L280.346 131.058L280.536 131.414H280.991V131.432ZM280.801 128.471L280.896 128.208H280.63L280.536 128.471H280.801ZM281.161 117.411L281.351 117.148H280.896L280.706 117.411H281.161ZM280.972 119.21L281.237 119.304L281.502 119.042L281.313 118.779L280.668 118.967L280.934 119.229L280.972 119.21ZM281.161 120.466L281.427 120.279L281.521 119.923L281.161 119.735L280.801 120.372L281.161 120.466ZM281.351 132.801L281.995 132.613L282.45 132.07L282.261 131.807H281.9L281.256 132.164L281.066 132.52L281.332 132.782L281.351 132.801ZM281.351 95.7217H281.54L281.351 95.4593V95.7217ZM281.995 131.62L282.185 131.432V131.076H281.635V131.432L281.995 131.62ZM283.095 131.17L283.455 131.264L283.91 130.814L283.55 130.626L283.095 130.72L282.905 130.983L283.095 131.17ZM283.19 120.279H283.55L283.455 120.016H283.19V120.279ZM283.91 105.694L284.27 105.601L284.365 105.413L284.1 105.32L283.55 105.582L283.91 105.676V105.694ZM284.63 104.439H284.991L285.18 104.176L284.915 103.989H284.46L284.365 104.345L284.63 104.439ZM284.63 129.633L284.991 129.37L284.63 129.277L284.365 129.539V129.802L284.63 129.614V129.633ZM284.536 134.394V134.657L284.801 134.751L284.536 134.394ZM285.256 131.245L285.976 131.058L286.242 130.514L285.976 130.42L285.066 130.776L284.877 131.133L285.237 131.226L285.256 131.245ZM285.521 126.109L286.071 125.471L285.711 125.378L285.066 125.921V126.277L285.521 126.09V126.109ZM285.256 128.452L285.521 128.358L285.616 128.096H285.256V128.452ZM286.261 133.495L286.355 133.138L286.09 133.045L285.9 133.232V133.588L286.261 133.495ZM286.621 119.004L286.431 118.648H286.166L285.976 119.004H286.621ZM286.431 136.644L286.336 137L285.976 136.906L286.242 136.363L286.431 136.625V136.644ZM288.346 132.782L288.896 132.595L288.991 132.239H288.536L288.27 132.501L288.365 132.763L288.346 132.782ZM288.611 135.575L288.517 135.838L288.251 135.744L288.346 135.482L288.611 135.575ZM290.431 103.726L290.697 103.989L291.057 103.895L291.607 104.345L291.967 104.157L291.872 103.801L290.773 103.445L290.412 103.707L290.431 103.726ZM290.886 102.92L291.246 102.826L291.512 102.376L291.152 102.283L290.791 102.733L290.886 102.92ZM292.251 108.675L291.986 108.938L291.531 108.75L291.341 108.488L291.986 108.131L292.346 108.225L292.251 108.675ZM292.156 111.187L291.796 111.374L292.156 110.925V111.187ZM292.801 98.5898L292.991 98.3274L292.725 98.1399L292.46 98.2337L292.365 98.5898H292.82H292.801ZM293.616 99.6771L292.972 100.033L293.161 100.296L294.071 99.9395L294.261 99.5834L293.9 99.3959L293.635 99.6583L293.616 99.6771ZM293.351 98.4211H293.616L293.521 98.1587H293.256L293.351 98.4211ZM294.355 94.1096L294.09 93.8471L293.9 94.1096L293.995 94.372L294.355 94.1096ZM294.716 126.952H295.171L295.436 126.315H295.076L294.716 126.765V126.952ZM314.28 96.0779L314.014 96.3403L314.109 96.6028L314.754 96.9589L314.659 97.3151L314.014 97.9525V98.3086L313.294 98.6648L312.649 98.7585L312.46 99.1147L312.554 99.3022L313.37 99.5646L313.104 99.9208L312.46 100.277L312.82 101.177L312.46 101.364L312.194 101.27L311.834 100.633L311.379 101.27L311.569 102.077L311.929 102.62L311.284 103.614L310.735 103.351L310.64 103.089L310.545 103.801L310.81 104.514L310.09 105.057L310.28 106.051L310.185 106.313L309.37 106.501V106.95L308.725 108.3L307.91 108.394V109.2L306.905 109.912L306.64 110.55L306.829 110.906L306.28 112.705L305.919 112.612L305.654 112.799V113.699L305.199 114.243H304.744L304.554 113.343L304.289 113.53L304.384 114.336L304.024 115.424L303.569 115.873L303.474 116.323L302.299 117.129L302.488 117.842L301.483 118.104L301.218 118.46V119.173L301.028 119.529L300.213 120.073L300.403 119.979L300.592 120.785L300.327 120.972L300.062 120.785L299.872 120.148L299.607 120.785L298.147 122.041L297.502 122.303L297.237 122.659L297.597 122.847H298.242L298.336 123.653L297.616 123.747L296.441 123.391L296.801 122.847L296.991 122.135L298.261 121.422L297.995 120.71L298.261 120.166L299.076 120.073L299.341 119.81L299.152 119.454L299.417 118.554L300.137 118.742L300.327 118.554L300.517 117.204L300.782 116.942L301.597 117.579L301.957 117.392L301.863 116.68L301.597 116.417L301.332 116.68L301.142 116.586L301.237 116.323L301.787 116.417L302.431 116.155L302.886 115.705L303.436 115.611L303.171 114.974L302.526 115.161L303.076 113.624L303.891 113.268L303.796 112.555L304.062 111.468L304.782 112.012L305.142 111.824L305.332 110.287L306.052 110.025L305.957 109.575L305.692 109.387L305.881 109.031L306.526 108.675V107.775L307.341 107.588L307.531 106.875L307.436 106.069L307.796 105.432L309.351 103.895L309.256 102.808L309.806 102.451L310.166 102.545L309.976 103.183L310.166 103.37L310.431 103.276L310.621 102.283L310.071 101.195L310.716 100.652L310.981 100.108L311.076 99.3959L311.626 98.8523L312.27 97.765L312.725 97.8587L313.085 97.6713L313.18 97.4088L312.63 96.9589L312.725 96.6028L313.275 96.2466L313.18 95.4405L313.445 95.3468L314.355 95.703V96.0591L314.28 96.0779ZM299.36 121.722V121.985L299 122.172V121.722H299.36ZM308.27 107.419L308.536 107.232L308.63 106.875L307.986 107.063L307.796 107.419H308.251H308.27ZM314.45 94.9156L313.995 94.8219L313.806 94.5595L313.995 94.0158H314.355L315 94.6532V95.0094L314.45 94.9156Z" fill="white"/>
</svg>
